<?xml version="1.0" encoding="utf-8" ?>
<svg baseProfile="full" height="200mm" version="1.1" viewBox="0,0,200,200" width="200mm" xmlns="http://www.w3.org/2000/svg" xmlns:ev="http://www.w3.org/2001/xml-events" xmlns:xlink="http://www.w3.org/1999/xlink"><defs /><rect fill="#1a1a1a" height="200" width="200" x="0" y="0" /><text alignment-baseline="middle" fill="#e1ed5e" style="dominant-baseline: central; font-size:9.0px; font-family:Arial;" text-anchor="middle" x="100.0" y="100.0">2024</text><line stroke="#e1ed5e" stroke-width="0.3" x1="100.0" x2="100.0" y1="15.0" y2="10.0" /><path d="M 100.0 14.0 a86.0,86.0 0 0,1 42.35913384403234,11.155469271406648" fill="none" id="id25" stroke="none" /><text fill="#e1ed5e" style="font-size:6.75px; font-family:Arial;" text-anchor="middle"><textPath startOffset="22.145653131862478" xlink:href="#id25">January</textPath></text><path d="M 101.80034050326958 79.07731436759882 l 0.3535002465169421 -4.10820870575215 a25.123389527355535,25.123389527355535 0 0,0 0.4293712128864902,0.040661900275917484 l -0.4239710227884453 4.10153504997105" fill="#ff0c01" stroke="none" /><path d="M 104.64783097203109 79.52079915486377 l 5.097049220935011 -22.458539336136422 a44.029674332769474,44.029674332769474 0 0,0 0.7356474764130044,0.17361080136923945 l -5.4818288510879 22.367732391120953" fill="#eeff19" stroke="none" /><path d="M 109.06512990194946 81.05736502329252 l 6.646742150797918 -13.889134707246093 a36.39763761540132,36.39763761540132 0 0,0 0.5612858044200559,0.2745530133321926 l -6.884188204480041 13.772987943816679" fill="#ffad10" stroke="none" /><path d="M 110.34350942703115 81.72400993836675 l 8.431056806830883 -14.896869529410116 a38.117226430011286,38.117226430011286 0 0,0 0.5666897712247743,0.32717849196363086 l -8.685539045916054 14.749944140170314" fill="#ffc412" stroke="none" /><line stroke="#e1ed5e" stroke-width="0.3" x1="143.13028292997686" x2="145.6673583964461" y1="26.7553504044142" y2="22.446841604673864" /><path d="M 143.63769802327073 25.89364864446614 a86.0,86.0 0 0,1 29.32050498858742,28.57503671076993" fill="none" id="id26" stroke="none" /><text fill="#e1ed5e" style="font-size:6.75px; font-family:Arial;" text-anchor="middle"><textPath startOffset="20.669276256404974" xlink:href="#id26">February</textPath></text><path d="M 113.03279911837588 83.53348406188908 l 10.267385971657562 -12.97250676615237 a37.54403658388301,37.54403658388301 0 0,0 0.5019266356513862,0.4043165681584688 l -10.488563377664208 12.794341904200493" fill="#ffbc11" stroke="none" /><path d="M 113.59037401385872 83.9905735841838 l 5.023937964697847 -5.918186289901739 a28.763045899330574,28.763045899330574 0 0,0 0.3736737688504808,0.3227705016363726 l -5.124791213311188 5.8310716558006455" fill="#ff4206" stroke="none" /><path d="M 113.86319453409587 84.22622945171908 l 5.33131602722698 -6.06605898279963 a29.075890177867166,29.075890177867166 0 0,0 0.3720813603350291,0.3327174467791049 l -5.434662414385385 5.973646006137138" fill="#ff4606" stroke="none" /><path d="M 115.41159269507618 85.73525988315684 l 16.573151421834194 -15.339861533265482 a43.582752266072504,43.582752266072504 0 0,0 0.5034893287327649,0.5534229706257271 l -16.834038451408833 15.053100987082084" fill="#f4ff19" stroke="none" /><path d="M 115.6541949942343 86.00192230759917 l 20.713961002979367 -18.52255165748616 a48.78764294317158,48.78764294317158 0 0,0 0.5529009160006476,0.629099747787483 l -21.028872982938605 18.164239631887384" fill="#b5ff20" stroke="none" /><line stroke="#e1ed5e" stroke-width="0.3" x1="172.87174338648825" x2="177.1583165268699" y1="56.24261187166439" y2="53.66864786411523" /><path d="M 173.72905801456457 55.72781907015455 a86.0,86.0 0 0,1 12.242430191666344,42.057860355516425" fill="none" id="id27" stroke="none" /><text fill="#e1ed5e" style="font-size:6.75px; font-family:Arial;" text-anchor="middle"><textPath startOffset="22.145653131862474" xlink:href="#id27">March</textPath></text><path d="M 120.9064616781168 98.02013634271609 l 7.9945648195654275 -0.7570936003305504 a29.030333577996288,29.030333577996288 0 0,0 0.042724878227237986,0.496527848041898 l -8.006383320490405 0.6197447049129904" fill="#ff4606" stroke="none" /><path d="M 120.98066250479742 99.09900007780936 l 7.965310265843796 -0.3420646954360261 a28.972651747506617,28.972651747506617 0 0,0 0.017073601614605204,0.49707928207581126 l -7.97000855445525 0.20527914879609482" fill="#ff4506" stroke="none" /><path d="M 120.99303781780057 99.45929381324524 l 7.9834924870209205 -0.2056264470681848 a28.98614015191653,28.98614015191653 0 0,0 0.008542033858132786,0.49753064818624704 l -7.985845952477719 0.06854888291287137" fill="#ff4506" stroke="none" /><line stroke="#e1ed5e" stroke-width="0.3" x1="184.99686870605535" x2="189.99668451229388" y1="99.2704041080226" y2="99.22748670261217" /><path d="M 185.99683186730306 99.26182062694052 a86.0,86.0 0 0,1 -10.086455211305974,41.156179273409016" fill="none" id="id28" stroke="none" /><text fill="#e1ed5e" style="font-size:6.75px; font-family:Arial;" text-anchor="middle"><textPath startOffset="21.40746469413373" xlink:href="#id28">April</textPath></text><path d="M 120.98066250479742 100.90099992219065 l 5.79976574558813 0.249066895971659 a26.805111284236194,26.805111284236194 0 0,0 -0.023688583803576753,0.4595521973333675 l -5.79463557232798 -0.34859088668175714" fill="#ff2503" stroke="none" /><path d="M 120.9064616781168 101.97986365728391 l 10.324495547894506 0.9777404627231578 a31.37068872982598,31.37068872982598 0 0,0 -0.05537316082938148,0.5356851005421622 l -10.306189994583459 -1.1548300855482514" fill="#ff6709" stroke="none" /><path d="M 120.592083275326 104.11899336999214 l 18.267148713958814 3.6539413441287913 a39.62900989006718,39.62900989006718 0 0,0 -0.1391587574789264,0.6659250305739298 l -18.201732245655524 -3.96698282598813" fill="#ffd814" stroke="none" /><path d="M 120.35273937422433 105.17358676015961 l 9.623300204975106 2.4462052804819505 a30.929341725881514,30.929341725881514 0 0,0 -0.13522090105814769,0.5134557863122869 l -9.579889823112229 -2.6110415711670405" fill="#ff6109" stroke="none" /><path d="M 119.83427380445688 106.89939002012753 l 40.89407166423362 14.225080923264953 a64.29755217737963,64.29755217737963 0 0,0 -0.3715780951827371,1.0393700644997217 l -40.643853399006936 -14.924985944145595" fill="#34ff58" stroke="none" /><line stroke="#e1ed5e" stroke-width="0.3" x1="174.33088141563837" x2="178.70328620479359" y1="141.23008692659167" y2="143.65538615756765" /><path d="M 175.20536237346943 141.71514677278685 a86.0,86.0 0 0,1 -30.301960400862466,31.631185727798858" fill="none" id="id29" stroke="none" /><text fill="#e1ed5e" style="font-size:6.75px; font-family:Arial;" text-anchor="middle"><textPath startOffset="22.145653131862474" xlink:href="#id29">May</textPath></text><path d="M 118.00360718960297 110.81064883170644 l 8.57300633511775 5.147843981759106 a30.999836762792807,30.999836762792807 0 0,0 -0.27786487501955565,0.45387139098839296 l -8.48337349564279 -5.294252488872056" fill="#ff6209" stroke="none" /><path d="M 117.81537515405839 111.11811171558189 l 11.500096040460619 7.17691047267312 a34.555819889353174,34.555819889353174 0 0,0 -0.31837808571200177,0.5005432319337144 l -11.375200263122727 -7.3732673792855055" fill="#ff940d" stroke="none" /><path d="M 116.79662413953412 112.60449989151573 l 9.567028291327048 7.179276386636134 a32.96118889420125,32.96118889420125 0 0,0 -0.34349957207367643,0.4496519663288434 l -9.442376741899068 -7.342449266205855" fill="#ff7e0b" stroke="none" /><path d="M 114.65682725009322 115.03919595460226 l 8.721306497985905 8.948828772101537 a33.495708200186314,33.495708200186314 0 0,0 -0.41523116428263734,0.39778206247382736 l -8.566402847837955 -9.097222964880945" fill="#ff850c" stroke="none" /><path d="M 112.7482090630111 116.68781488649013 l 2.023481486232165 2.648802220106239 a24.333261244841765,24.333261244841765 0 0,0 -0.3341153880954099,0.250726416095129 l -1.9777131092259888 -2.683147663465383" fill="#ff0000" stroke="none" /><line stroke="#e1ed5e" stroke-width="0.3" x1="143.1302829299769" x2="145.66735839644613" y1="173.24464959558577" y2="177.55315839532614" /><path d="M 143.63769802327073 174.10635135553383 a86.0,86.0 0 0,1 -40.68552437913181,11.842963189579606" fill="none" id="id30" stroke="none" /><text fill="#e1ed5e" style="font-size:6.75px; font-family:Arial;" text-anchor="middle"><textPath startOffset="21.407464694133747" xlink:href="#id30">June</textPath></text><path d="M 105.69591212413111 120.21278271476187 l 2.8674596936400096 10.17560286531363 a31.57190705441686,31.57190705441686 0 0,0 -0.5229188800708233,0.1425238660802759 l -2.6923594126344916 -10.223327225538048" fill="#ff6a09" stroke="none" /><line stroke="#e1ed5e" stroke-width="0.3" x1="101.45913802915013" x2="101.54496967792366" y1="184.9874750549273" y2="189.98673829345242" /><path d="M 101.47630435890484 185.9873277026323 a86.0,86.0 0 0,1 -42.54439059252881,-10.42667462771756" fill="none" id="id31" stroke="none" /><text fill="#e1ed5e" style="font-size:6.75px; font-family:Arial;" text-anchor="middle"><textPath startOffset="22.145653131862474" xlink:href="#id31">July</textPath></text><path d="M 98.55909050195518 120.95050786540614 l -4.322728494134462 62.8515235962184 a84.0,84.0 0 0,0 -1.4377240208990556,-0.1112889320197854 l 5.4010215098087535 -62.76805689720356" fill="#4dd2ff" stroke="none" /><path d="M 94.30408787586889 120.21278271476187 l -4.33027588193935 15.36662146275049 a36.96509769444489,36.96509769444489 0 0,0 -0.6092904027746595,-0.1773555563542311 l 4.593426297095617 -15.290022212093744" fill="#ffb510" stroke="none" /><line stroke="#e1ed5e" stroke-width="0.3" x1="58.13341422392154" x2="55.67067388415222" y1="173.97424548756322" y2="178.32567169271397" /><path d="M 57.64086615596768 174.84453072859336 a86.0,86.0 0 0,1 -31.369924170532247,-30.572349798747897" fill="none" id="id32" stroke="none" /><text fill="#e1ed5e" style="font-size:6.75px; font-family:Arial;" text-anchor="middle"><textPath startOffset="22.145653131862474" xlink:href="#id32">August</textPath></text><path d="M 84.83555147118756 114.52719865689866 l -40.91697570161264 39.19753714270886 a77.6625609959557,77.6625609959557 0 0,0 -0.9139928041548986,-0.9706286845700245 l 41.58382433950379 -38.48936699819435" fill="#45ffee" stroke="none" /><line stroke="#e1ed5e" stroke-width="0.3" x1="26.387840678322732" x2="22.057713659400548" y1="142.50000000000003" y2="145.00000000000006" /><path d="M 25.521815274538298 143.00000000000003 a86.0,86.0 0 0,1 -11.493303480769221,-40.785679425670985" fill="none" id="id33" stroke="none" /><text fill="#e1ed5e" style="font-size:6.75px; font-family:Arial;" text-anchor="middle"><textPath startOffset="21.40746469413373" xlink:href="#id33">September</textPath></text><path d="M 80.83023694016515 108.57439118712176 l -21.421877194417178 9.581733193785125 a44.46713517942858,44.46713517942858 0 0,0 -0.3056927468419438,-0.6994848284842835 l 21.58320382327609 -9.212586295524991" fill="#e9ff1a" stroke="none" /><line stroke="#e1ed5e" stroke-width="0.3" x1="15.003131293944662" x2="10.003315487706104" y1="100.72959589197737" y2="100.7725132973878" /><path d="M 14.003168132696942 100.73817937305945 a86.0,86.0 0 0,1 10.791469493833604,-42.45332614584628" fill="none" id="id34" stroke="none" /><text fill="#e1ed5e" style="font-size:6.75px; font-family:Arial;" text-anchor="middle"><textPath startOffset="22.145653131862435" xlink:href="#id34">October</textPath></text><line stroke="#e1ed5e" stroke-width="0.3" x1="26.387840678322718" x2="22.05771365940052" y1="57.49999999999999" y2="54.99999999999999" /><path d="M 25.521815274538284 56.99999999999999 a86.0,86.0 0 0,1 29.574782752854787,-30.34633250058573" fill="none" id="id35" stroke="none" /><text fill="#e1ed5e" style="font-size:6.75px; font-family:Arial;" text-anchor="middle"><textPath startOffset="21.40746469413373" xlink:href="#id35">November</textPath></text><line stroke="#e1ed5e" stroke-width="0.3" x1="56.869717070023135" x2="54.33264160355391" y1="26.7553504044142" y2="22.446841604673864" /><path d="M 56.362301976729285 25.89364864446614 a86.0,86.0 0 0,1 42.16139366436587,-11.88097634709845" fill="none" id="id36" stroke="none" /><text fill="#e1ed5e" style="font-size:6.75px; font-family:Arial;" text-anchor="middle"><textPath startOffset="22.145653131862474" xlink:href="#id36">December</textPath></text></svg>