<?xml version="1.0" encoding="utf-8" ?>
<svg baseProfile="full" height="200mm" version="1.1" viewBox="0,0,200,200" width="200mm" xmlns="http://www.w3.org/2000/svg" xmlns:ev="http://www.w3.org/2001/xml-events" xmlns:xlink="http://www.w3.org/1999/xlink"><defs /><rect fill="#1a1a1a" height="200" width="200" x="0" y="0" /><text alignment-baseline="middle" fill="#e1ed5e" style="dominant-baseline: central; font-size:9.0px; font-family:Arial;" text-anchor="middle" x="100.0" y="100.0">2024</text><line stroke="#e1ed5e" stroke-width="0.3" x1="100.0" x2="100.0" y1="15.0" y2="10.0" /><path d="M 100.0 14.0 a86.0,86.0 0 0,1 42.35913384403234,11.155469271406648" fill="none" id="id25" stroke="none" /><text fill="#e1ed5e" style="font-size:6.75px; font-family:Arial;" text-anchor="middle"><textPath startOffset="22.145653131862478" xlink:href="#id25">January</textPath></text><path d="M 101.80034050326958 79.07731436759882 l 0.801453925981153 -9.314109476348587 a30.34852735637422,30.34852735637422 0 0,0 0.5186714151821231,0.04911872227838419 l -0.961224904548289 9.298978998565019" fill="#ff0000" stroke="none" /><path d="M 104.64783097203109 79.52079915486377 l 11.556003565167977 -50.91788393388302 a73.21275823687691,73.21275823687691 0 0,0 1.2232382286350236,0.2886808912528491 l -12.428373947542886 50.712006898983944" fill="#3effb1" stroke="none" /><path d="M 109.06512990194946 81.05736502329252 l 15.069459340493262 -31.489374192190205 a55.90944416387282,55.90944416387282 0 0,0 0.8621762124726168,0.4217335897213285 l -15.607795802227946 31.226046852371656" fill="#87ff25" stroke="none" /><path d="M 110.34350942703115 81.72400993836675 l 19.114848276862205 -33.77410535582907 a59.80808700817529,59.80808700817529 0 0,0 0.8891683450863351,0.5133615833904897 l -19.691809089808938 33.44099687516241" fill="#58ff2a" stroke="none" /><line stroke="#e1ed5e" stroke-width="0.3" x1="143.13028292997686" x2="145.6673583964461" y1="26.7553504044142" y2="22.446841604673864" /><path d="M 143.63769802327073 25.89364864446614 a86.0,86.0 0 0,1 29.32050498858742,28.57503671076993" fill="none" id="id26" stroke="none" /><text fill="#e1ed5e" style="font-size:6.75px; font-family:Arial;" text-anchor="middle"><textPath startOffset="20.669276256404974" xlink:href="#id26">February</textPath></text><path d="M 113.03279911837588 83.53348406188908 l 23.278164237869596 -29.411200076918753 a58.50855396106036,58.50855396106036 0 0,0 0.7822014977235916,0.6300861574273449 l -23.779616505948447 29.007265625698" fill="#67ff28" stroke="none" /><path d="M 113.59037401385872 83.9905735841838 l 11.390246104113757 -13.417681270279562 a38.60033741105805,38.60033741105805 0 0,0 0.5014744825625708,0.43316171427416233 l -11.618900066439188 13.22017542354068" fill="#ff850c" stroke="none" /><path d="M 113.86319453409587 84.22622945171908 l 12.087132053704314 -13.752937472888014 a39.309616337238026,39.309616337238026 0 0,0 0.5030413662843362,0.44982269163844474 l -12.321438446812024 13.543419251366183" fill="#ff900d" stroke="none" /><path d="M 115.41159269507618 85.73525988315684 l 37.574562970700924 -34.77845453002724 a72.19949884458188,72.19949884458188 0 0,0 0.8340840198933225,0.9168044478770134 l -38.16604469143613 34.12831250659255" fill="#3cffa5" stroke="none" /><path d="M 115.6541949942343 86.00192230759917 l 46.96258498270291 -41.99423307720248 a84.0,84.0 0 0,0 0.9519557441656392,1.0831508887548087 l -47.67655179082713 41.18186991063638" fill="#4dd2ff" stroke="none" /><line stroke="#e1ed5e" stroke-width="0.3" x1="172.87174338648825" x2="177.1583165268699" y1="56.24261187166439" y2="53.66864786411523" /><path d="M 173.72905801456457 55.72781907015455 a86.0,86.0 0 0,1 12.242430191666344,42.057860355516425" fill="none" id="id27" stroke="none" /><text fill="#e1ed5e" style="font-size:6.75px; font-family:Arial;" text-anchor="middle"><textPath startOffset="22.145653131862474" xlink:href="#id27">March</textPath></text><path d="M 120.9064616781168 98.02013634271609 l 18.125235906573664 -1.7164786850892475 a39.20633065022474,39.20633065022474 0 0,0 0.05770122131966549,0.670575656151962 l -18.15203075059107 1.4050819815616236" fill="#ff8f0d" stroke="none" /><path d="M 120.98066250479742 99.09900007780936 l 18.05891013406277 -0.7755273038645857 a39.07555470322265,39.07555470322265 0 0,0 0.023027248582103015,0.6704132175358648 l -18.06956206964172 0.46540782176460094" fill="#ff8d0d" stroke="none" /><path d="M 120.99303781780057 99.45929381324524 l 18.100132771639533 -0.466195214606319 a39.10613554376254,39.10613554376254 0 0,0 0.011524333082114865,0.6712346267276629 l -18.105468536320313 0.15541367190958977" fill="#ff8d0d" stroke="none" /><line stroke="#e1ed5e" stroke-width="0.3" x1="184.99686870605535" x2="189.99668451229388" y1="99.2704041080226" y2="99.22748670261217" /><path d="M 185.99683186730306 99.26182062694052 a86.0,86.0 0 0,1 -10.086455211305974,41.156179273409016" fill="none" id="id28" stroke="none" /><text fill="#e1ed5e" style="font-size:6.75px; font-family:Arial;" text-anchor="middle"><textPath startOffset="21.40746469413373" xlink:href="#id28">April</textPath></text><path d="M 120.98066250479742 100.90099992219065 l 13.149198826230073 0.5646831751186875 a34.161318203735995,34.161318203735995 0 0,0 -0.030189512758551904,0.5856684823227579 l -13.137567724014948 -0.790323450818176" fill="#ff3f05" stroke="none" /><path d="M 120.9064616781168 101.97986365728391 l 23.407642772997086 2.216728107437255 a44.51237171555743,44.51237171555743 0 0,0 -0.07856986306964149,0.7600921523647642 l -23.36614051744578 -2.6182247820849502" fill="#ffde14" stroke="none" /><path d="M 120.592083275326 104.11899336999214 l 41.415184847918354 8.284196869482294 a63.23559463011721,63.23559463011721 0 0,0 -0.22205416692416038,1.0626095732453853 l -41.26687297016983 -8.993922894013089" fill="#30ff2f" stroke="none" /><line stroke="#e1ed5e" stroke-width="0.3" x1="174.33088141563837" x2="178.70328620479359" y1="141.23008692659167" y2="143.65538615756765" /><path d="M 175.20536237346943 141.71514677278685 a86.0,86.0 0 0,1 -30.301960400862466,31.631185727798858" fill="none" id="id29" stroke="none" /><text fill="#e1ed5e" style="font-size:6.75px; font-family:Arial;" text-anchor="middle"><textPath startOffset="22.145653131862474" xlink:href="#id29">May</textPath></text><line stroke="#e1ed5e" stroke-width="0.3" x1="143.1302829299769" x2="145.66735839644613" y1="173.24464959558577" y2="177.55315839532614" /><path d="M 143.63769802327073 174.10635135553383 a86.0,86.0 0 0,1 -40.68552437913181,11.842963189579606" fill="none" id="id30" stroke="none" /><text fill="#e1ed5e" style="font-size:6.75px; font-family:Arial;" text-anchor="middle"><textPath startOffset="21.407464694133747" xlink:href="#id30">June</textPath></text><line stroke="#e1ed5e" stroke-width="0.3" x1="101.45913802915013" x2="101.54496967792366" y1="184.9874750549273" y2="189.98673829345242" /><path d="M 101.47630435890484 185.9873277026323 a86.0,86.0 0 0,1 -42.54439059252881,-10.42667462771756" fill="none" id="id31" stroke="none" /><text fill="#e1ed5e" style="font-size:6.75px; font-family:Arial;" text-anchor="middle"><textPath startOffset="22.145653131862474" xlink:href="#id31">July</textPath></text><line stroke="#e1ed5e" stroke-width="0.3" x1="58.13341422392154" x2="55.67067388415222" y1="173.97424548756322" y2="178.32567169271397" /><path d="M 57.64086615596768 174.84453072859336 a86.0,86.0 0 0,1 -31.369924170532247,-30.572349798747897" fill="none" id="id32" stroke="none" /><text fill="#e1ed5e" style="font-size:6.75px; font-family:Arial;" text-anchor="middle"><textPath startOffset="22.145653131862474" xlink:href="#id32">August</textPath></text><line stroke="#e1ed5e" stroke-width="0.3" x1="26.387840678322732" x2="22.057713659400548" y1="142.50000000000003" y2="145.00000000000006" /><path d="M 25.521815274538298 143.00000000000003 a86.0,86.0 0 0,1 -11.493303480769221,-40.785679425670985" fill="none" id="id33" stroke="none" /><text fill="#e1ed5e" style="font-size:6.75px; font-family:Arial;" text-anchor="middle"><textPath startOffset="21.40746469413373" xlink:href="#id33">September</textPath></text><line stroke="#e1ed5e" stroke-width="0.3" x1="15.003131293944662" x2="10.003315487706104" y1="100.72959589197737" y2="100.7725132973878" /><path d="M 14.003168132696942 100.73817937305945 a86.0,86.0 0 0,1 10.791469493833604,-42.45332614584628" fill="none" id="id34" stroke="none" /><text fill="#e1ed5e" style="font-size:6.75px; font-family:Arial;" text-anchor="middle"><textPath startOffset="22.145653131862435" xlink:href="#id34">October</textPath></text><line stroke="#e1ed5e" stroke-width="0.3" x1="26.387840678322718" x2="22.05771365940052" y1="57.49999999999999" y2="54.99999999999999" /><path d="M 25.521815274538284 56.99999999999999 a86.0,86.0 0 0,1 29.574782752854787,-30.34633250058573" fill="none" id="id35" stroke="none" /><text fill="#e1ed5e" style="font-size:6.75px; font-family:Arial;" text-anchor="middle"><textPath startOffset="21.40746469413373" xlink:href="#id35">November</textPath></text><line stroke="#e1ed5e" stroke-width="0.3" x1="56.869717070023135" x2="54.33264160355391" y1="26.7553504044142" y2="22.446841604673864" /><path d="M 56.362301976729285 25.89364864446614 a86.0,86.0 0 0,1 42.16139366436587,-11.88097634709845" fill="none" id="id36" stroke="none" /><text fill="#e1ed5e" style="font-size:6.75px; font-family:Arial;" text-anchor="middle"><textPath startOffset="22.145653131862474" xlink:href="#id36">December</textPath></text></svg>