<?xml version="1.0" encoding="utf-8" ?>
<svg baseProfile="full" height="200mm" version="1.1" viewBox="0,0,200,200" width="200mm" xmlns="http://www.w3.org/2000/svg" xmlns:ev="http://www.w3.org/2001/xml-events" xmlns:xlink="http://www.w3.org/1999/xlink"><defs /><rect fill="#1a1a1a" height="200" width="200" x="0" y="0" /><text alignment-baseline="middle" fill="#e1ed5e" style="dominant-baseline: central; font-size:9.0px; font-family:Arial;" text-anchor="middle" x="100.0" y="100.0">2023</text><line stroke="#e1ed5e" stroke-width="0.3" x1="100.0" x2="100.0" y1="15.0" y2="10.0" /><path d="M 100.0 14.0 a86.0,86.0 0 0,1 42.46469731375804,11.215312516191453" fill="none" id="id13" stroke="none" /><text fill="#e1ed5e" style="font-size:6.75px; font-family:Arial;" text-anchor="middle"><textPath startOffset="22.20632615414155" xlink:href="#id13">January</textPath></text><path d="M 100.72285384407766 79.0124445844662 l 1.1434132644898167 -33.198203824946724 a54.217888721231496,54.217888721231496 0 0,0 0.932442264769896,0.040152925365398495 l -1.7146963616490443 33.17360317305713" fill="#78ff26" stroke="none" /><path d="M 101.08401301168833 79.027996857942 l 1.4329533616621664 -27.72282443030483 a48.759833388012346,48.759833388012346 0 0,0 0.8378284942215362,0.05054010278181522 l -1.9099439047233144 27.69405105814271" fill="#b7ff1f" stroke="none" /><path d="M 101.80526077348638 79.07773832637324 l 1.4686192907461317 -17.020719416943894 a38.083961252926166,38.083961252926166 0 0,0 0.6526409864665176,0.06197612564399062 l -1.7613854043028934 16.992917746784727" fill="#ffc111" stroke="none" /><path d="M 102.16513564639614 79.11191278185805 l 2.885460318388838 -27.837399885460286 a48.98654522501877,48.98654522501877 0 0,0 0.8379808630882581,0.09415691384653213 l -3.364207884986821 27.783607018143154" fill="#b4ff20" stroke="none" /><path d="M 102.52436894288641 79.15227682838746 l 2.1962142086933563 -18.137628407061854 a39.27011004573108,39.27011004573108 0 0,0 0.6703693362509842,0.08703317957415262 l -2.5080982734521866 18.097136904323566" fill="#ffd113" stroke="none" /><path d="M 103.59715602781102 79.31037775812273 l 4.786376590799206 -27.529615842452486 a48.942604554728995,48.942604554728995 0 0,0 0.8287728078853818,0.1514529332585817 l -5.259544519787489 27.443147427843165" fill="#b5ff20" stroke="none" /><path d="M 105.01212808612495 79.60689891045804 l 10.527503578082003 -42.83379055748034 a65.10852463083096,65.10852463083096 0 0,0 1.0860446404291522,0.2768569606380321 l -11.26325710719618 42.64623060067344" fill="#35ff61" stroke="none" /><path d="M 105.36241919743992 79.69619591428918 l 4.283416874337875 -16.218362241337687 a37.77447268651419,37.77447268651419 0 0,0 0.6272399218689895,0.1714483647721122 l -4.5619546854305755 16.142227335739282" fill="#ffbd11" stroke="none" /><path d="M 105.71112130821622 79.79150937346287 l 7.485441058750944 -26.48682409418324 a48.52423801743184,48.52423801743184 0 0,0 0.8018278699793154,0.23407554281487733 l -7.940259146453688 26.354050222449658" fill="#b9ff1f" stroke="none" /><path d="M 106.0581310904928 79.89281104454417 l 4.1107059587468875 -13.643603979213074 a35.24941518171451,35.24941518171451 0 0,0 0.5794577963867011,0.1800403579933681 l -4.344949127844306 13.570823486337186" fill="#ff9b0e" stroke="none" /><path d="M 106.74666289553966 80.11325718540242 l 4.259370447530741 -12.55509663868656 a34.25792925822343,34.25792925822343 0 0,0 0.5568022742551887,0.19425738038838652 l -4.474854725849203 12.479918405125968" fill="#ff8d0d" stroke="none" /><path d="M 107.08798089147638 80.2323363322302 l 20.7048570574055 -57.74375761822771 a82.34356241399928,82.34356241399928 0 0,0 1.330113891889406,0.4898921716757626 l -21.695753275067485 57.37880217874562" fill="#4be2ff" stroke="none" /><path d="M 108.09893153111575 80.62456947434976 l 12.899658401843162 -30.860420810978276 a54.44797093270239,54.44797093270239 0 0,0 0.8616164331570382,0.3688991907511019 l -13.428958592790515 30.633802092264382" fill="#76ff27" stroke="none" /><path d="M 108.43124777332544 80.76684994638697 l 6.635948679559821 -15.137758981042218 a37.52838654696447,37.52838654696447 0 0,0 0.5894063308704575,0.2644494398794122 l -6.895537128897058 15.021289210646275" fill="#ffba11" stroke="none" /><path d="M 108.76106565485865 80.91482961587045 l 14.370179139069151 -31.30410478861133 a55.44486935822659,55.44486935822659 0 0,0 0.8639413964599532,0.40563206982732913 l -14.906898746828704 31.052107736144" fill="#6bff28" stroke="none" /><path d="M 109.73455568895987 81.39251694778311 l 9.87338770449622 -18.872858736402215 a42.299497215837995,42.299497215837995 0 0,0 0.642257343649136,0.3430716301970016 l -10.196790094673666 18.700108379703458" fill="#fff817" stroke="none" /><path d="M 110.05341064243156 81.56283822128135 l 21.013664862963115 -38.537403118402885 a64.89425418073782,64.89425418073782 0 0,0 0.9761205549205454,0.5432100319899824 l -21.673909506955695 38.169977688852725" fill="#34ff5e" stroke="none" /><line stroke="#e1ed5e" stroke-width="0.3" x1="143.23703022742887" x2="145.7803849466894" y1="26.81831364943548" y2="22.513508569990506" /><path d="M 143.74570117128098 25.957352633546492 a86.0,86.0 0 0,1 28.547481713284135,27.462654790039103" fill="none" id="id14" stroke="none" /><text fill="#e1ed5e" style="font-size:6.75px; font-family:Arial;" text-anchor="middle"><textPath startOffset="19.985693538727396" xlink:href="#id14">February</textPath></text><path d="M 110.99172775467656 82.1063720568725 l 15.747725227509333 -25.636000314124104 a51.086464763193845,51.086464763193845 0 0,0 0.745329256021516,0.46672511174403597 l -16.186673635903112 25.361130861057124" fill="#9cff22" stroke="none" /><path d="M 115.68641384162765 86.03803664274999 l 29.07256627024726 -25.876539345738493 a59.920552386232536,59.920552386232536 0 0,0 0.6791228098491965,0.7763547699057243 l -29.513680943674306 25.372269019629822" fill="#3cff2e" stroke="none" /><path d="M 116.38621287248628 86.86637796730983 l 23.252809386943817 -18.637229484494835 a50.79999106112729,50.79999106112729 0 0,0 0.5410100336516295,0.6870278023084672 l -23.570173501189412 18.234209288233327" fill="#9fff22" stroke="none" /><path d="M 117.04232023915458 87.72973835380427 l 32.96985759029643 -23.73789327941992 a61.626334893386044,61.626334893386044 0 0,0 0.6124113514280615,0.8662124258193185 l -33.37358156152837 23.16685435326881" fill="#30ff36" stroke="none" /><line stroke="#e1ed5e" stroke-width="0.3" x1="172.23445277983987" x2="176.4835382374775" y1="55.19839476539836" y2="52.563006222186495" /><path d="M 173.08426987136738 54.67131705675599 a86.0,86.0 0 0,1 12.851231095245387,41.99856678651699" fill="none" id="id15" stroke="none" /><text fill="#e1ed5e" style="font-size:6.75px; font-family:Arial;" text-anchor="middle"><textPath startOffset="22.20632615414155" xlink:href="#id15">March</textPath></text><path d="M 118.56541770881063 90.18545643968196 l 31.427142703759156 -16.61384978674609 a56.5483516250614,56.5483516250614 0 0,0 0.44751441002047665,0.864455399183727 l -31.708466546939746 16.07042166530202" fill="#5fff29" stroke="none" /><path d="M 120.37134235888165 94.90015583598534 l 29.627693598611163 -7.41711653705604 a51.54200133746076,51.54200133746076 0 0,0 0.20805100582522135,0.8625057361816358 l -29.750977404697203 6.906025569214997" fill="#96ff23" stroke="none" /><path d="M 120.53481517161879 95.60439243477599 l 30.424764576796512 -6.512614027749434 a52.11399108163288,52.11399108163288 0 0,0 0.18021689166798818,0.8788015664994787 l -30.532360764379497 5.987936805086544" fill="#90ff24" stroke="none" /><path d="M 120.78858239683441 97.02765380044208 l 39.42766239711536 -5.63735709566054 a60.828637399801906,60.828637399801906 0 0,0 0.13928020276393407,1.0377992884546854 l -39.518858598937136 4.9578394651411895" fill="#32ff2f" stroke="none" /><path d="M 120.94382443527127 98.46500227214037 l 36.166000173818404 -2.6506490380568035 a57.26300468653397,57.26300468653397 0 0,0 0.06358759174292176,0.9836718997287186 l -36.206268356565744 2.02771807407505" fill="#57ff2a" stroke="none" /><path d="M 120.96714384426684 98.82574320788733 l 21.9913214785465 -1.2316154649159559 a43.02578255195944,43.02578255195944 0 0,0 0.035048375828295716,0.7398158194460228 l -22.009263462608292 0.8528885388469334" fill="#fdff18" stroke="none" /><line stroke="#e1ed5e" stroke-width="0.3" x1="184.98032266829074" x2="189.97916517819016" y1="98.17113171792111" y2="98.06355123074" /><path d="M 185.9800911702706 98.14961562048488 a86.0,86.0 0 0,1 -9.607161424134198,41.387399972396054" fill="none" id="id16" stroke="none" /><text fill="#e1ed5e" style="font-size:6.75px; font-family:Arial;" text-anchor="middle"><textPath startOffset="21.466115282336823" xlink:href="#id16">April</textPath></text><path d="M 120.99980553446 99.90962569577887 l 34.11186446425643 -0.1468030745134203 a55.11218035204562,55.11218035204562 0 0,0 -0.004082769921670293,0.9486919444187432 l -34.10933739704526 -0.4403983481090076" fill="#6eff28" stroke="none" /><path d="M 120.9904718944345 100.63252640178507 l 25.286742899933166 0.7619901343713839 a46.29822119146324,46.29822119146324 0 0,0 -0.03086077854589102,0.796379567482611 l -25.269879988536072 -1.197146948868001" fill="#d4ff1c" stroke="none" /><path d="M 120.9764740272857 100.99374915477107 l 36.04445004303047 1.7075863997856209 a57.08487536651959,57.08487536651959 0 0,0 -0.05494731620418806,0.9811212423449613 l -36.00971637593876 -2.3277793584660054" fill="#59ff2a" stroke="none" /><path d="M 120.95626037817324 101.35467743843564 l 22.14453106053074 1.4314909278223646 a43.19075082477491,43.19075082477491 0 0,0 -0.05434515574579281,0.7414964727240777 l -22.116609346120608 -1.8124605370432127" fill="#fbff18" stroke="none" /><path d="M 120.8583938346157 102.4346265915055 l 31.862553799990746 3.719050535233198 a53.07886643166998,53.07886643166998 0 0,0 -0.11373661334825168,0.906592714837657 l -31.793815677395646 -4.26696100435825" fill="#85ff25" stroke="none" /><path d="M 120.70491114924044 103.5080841355445 l 25.25037221067114 4.278232808166322 a46.610243511890005,46.610243511890005 0 0,0 -0.14083741782219847,0.7898910328400152 l -25.172988350509755 -4.712242591739556" fill="#d0ff1d" stroke="none" /><path d="M 120.5718875245553 104.21870165774334 l 10.288635009420657 2.1099027261523657 a31.50274725349999,31.50274725349999 0 0,0 -0.11350884065509463,0.5302755145017849 l -10.25079213004112 -2.2866920600703198" fill="#ff6609" stroke="none" /><path d="M 120.49622156327973 104.57218783832717 l 26.222017833227163 5.849467945266231 a47.86653112124415,47.86653112124415 0 0,0 -0.18631348403419415,0.8026336129424002 l -26.117443783262416 -6.299970215557196" fill="#c1ff1e" stroke="none" /><path d="M 120.23288151984713 105.62410040840565 l 21.62126746734469 6.010027739946951 a43.44102583059406,43.44102583059406 0 0,0 -0.20646353519592553,0.718726651488203 l -21.514611295262664 -6.381311866939735" fill="#f8ff18" stroke="none" /><path d="M 120.13307415673323 105.97154293290107 l 17.007317743951862 5.044432225842347 a38.73964918832547,38.73964918832547 0 0,0 -0.19512465364901724,0.6376786579618909 l -16.91796631779671 -5.336437856356295" fill="#ffca12" stroke="none" /><path d="M 119.9155931802556 106.66101706037122 l 20.893171003053546 6.987980083594319 a43.03080707127064,43.03080707127064 0 0,0 -0.2409913077854423,0.7004335459551553 l -20.769788864324873 -7.346586332638775" fill="#fdff18" stroke="none" /><path d="M 119.79798401119884 107.00284435728193 l 27.03856995807737 9.563948377410021 a49.6801913163704,49.6801913163704 0 0,0 -0.2921094445805025,0.8037597354711294 l -26.86993625249164 -10.027955909887282" fill="#acff21" stroke="none" /><path d="M 119.67450827220406 107.3425965602758 l 12.922887496091791 4.8228676399344 a34.79351563267944,34.79351563267944 0 0,0 -0.2142381240170571,0.5593081383150084 l -12.837955092481227 -5.044599345082553" fill="#ff940d" stroke="none" /><path d="M 119.26925614724726 108.34839909993367 l 33.59331649206457 14.554293690584565 a57.61063203179927,57.61063203179927 0 0,0 -0.40206436850125166,0.906549009076939 l -33.337811038832044 -15.130391036154192" fill="#54ff2b" stroke="none" /><path d="M 118.97047184881838 109.00673069616215 l 15.635663059959468 7.423442472030938 a38.3084215762193,38.3084215762193 0 0,0 -0.2879456947636586,0.5932534179106975 l -15.505564108581096 -7.691484845906912" fill="#ffc412" stroke="none" /><line stroke="#e1ed5e" stroke-width="0.3" x1="174.80103733775053" x2="179.2010983576182" y1="140.37084112569926" y2="142.7455964860345" /><path d="M 175.68104954172406 140.8457921977663 a86.0,86.0 0 0,1 -30.038265399797805,32.042727171017184" fill="none" id="id17" stroke="none" /><text fill="#e1ed5e" style="font-size:6.75px; font-family:Arial;" text-anchor="middle"><textPath startOffset="22.206326154141568" xlink:href="#id17">May</textPath></text><path d="M 118.48025628344425 109.97397251340804 l 36.87140003222415 19.899850132583566 a62.89873716039167,62.89873716039167 0 0,0 -0.522429694118156,0.9483616447870252 l -36.52339392865449 -20.5315822957684" fill="#32ff46" stroke="none" /><path d="M 117.94076556474637 110.91462005526583 l 29.33238755116648 17.84493890628002 a55.33410555148762,55.33410555148762 0 0,0 -0.5020525590430318,0.8094685821922943 l -29.020870352455486 -18.34720381983759" fill="#6cff28" stroke="none" /><path d="M 117.75023020441432 111.22182372390056 l 13.046597615377394 8.248153232402379 a36.43521107995485,36.43521107995485 0 0,0 -0.3397065300612271,0.5272320785476585 l -12.902686221939115 -8.47150691087149" fill="#ffab0f" stroke="none" /><path d="M 117.55443506779139 111.5257021239791 l 48.654379855173346 31.944969295341245 a79.20420725662186,79.20420725662186 0 0,0 -0.758085699856506,1.1332352628670204 l -48.09729104990612 -32.77774147241407" fill="#47fffd" stroke="none" /><path d="M 116.93607887273984 112.41649034213515 l 17.767297848621308 13.025888920388338 a43.03067531892563,43.03067531892563 0 0,0 -0.4430904154390116,0.5935920202813884 l -17.540446166487204 -13.329793820179042" fill="#fdff18" stroke="none" /><path d="M 116.498646956653 112.99209946851258 l 17.291686780031714 13.616590209777458 a43.00940618553192,43.00940618553192 0 0,0 -0.46303125484313984,0.577702684726952 l -17.05473761313372 -13.91222072808266" fill="#fdff18" stroke="none" /><path d="M 116.0416608686014 113.55231037782055 l 21.166667660259446 17.882016840131755 a48.7091022249121,48.7091022249121 0 0,0 -0.5466030853039611,0.6358228761490751 l -20.855722065384708 -18.243716815442355" fill="#b7ff1f" stroke="none" /><path d="M 115.80600337817218 113.82643327865902 l 20.033123978817176 17.524142278669494 a47.6161909174418,47.6161909174418 0 0,0 -0.5449585762124909,0.612266737440935 l -19.728506552956347 -17.866383185851294" fill="#c4ff1e" stroke="none" /><path d="M 115.07121518719521 114.62390073753431 l 15.845304671160319 15.375015205403695 a43.078604409887184,43.078604409887184 0 0,0 -0.5209626404483236,0.5277324043090447 l -15.57830140565646 -15.645488103693404" fill="#fcff18" stroke="none" /><path d="M 114.55890576462653 115.13401014063108 l 7.897986045350307 8.209971465802703 a32.39218218963526,32.39218218963526 0 0,0 -0.40515550033816605,0.3830998141010026 l -7.755494710621333 -8.344705916649627" fill="#ff730a" stroke="none" /><path d="M 114.0293411484842 115.62618273729858 l 12.563014053538776 13.992955995161433 a39.80510940122224,39.80510940122224 0 0,0 -0.5137847284091032,0.45335528609498404 l -12.320286972223085 -14.207134423028705" fill="#ffd814" stroke="none" /><path d="M 113.48314897796784 116.09983520530334 l 4.014170657306784 4.793204182065189 a27.25206944914642,27.25206944914642 0 0,0 -0.3622317448681614,0.29809206541486183 l -3.9310687838939318 -4.861591366337229" fill="#ff2803" stroke="none" /><path d="M 113.20401910651253 116.32954008644616 l 2.2564897192133317 2.7906229934470277 a24.58877730494255,24.58877730494255 0 0,0 -0.33141281806693496,0.2632943862839056 l -2.2081194084290456 -2.8290512937360592" fill="#ff0000" stroke="none" /><path d="M 112.92097659922987 116.55440617244103 l 8.633746511333213 11.061590077256584 a35.03211865183657,35.03211865183657 0 0,0 -0.4785575438675786,0.36693751789712326 l -8.44206023897214 -11.208566936981079" fill="#ff980e" stroke="none" /><path d="M 112.63410532772338 116.77436683061366 l 9.196080474621537 12.209683494299501 a36.28542662560274,36.28542662560274 0 0,0 -0.5021471586749788,0.3714764633446515 l -8.984548345527994 -12.366169906383922" fill="#ffa90f" stroke="none" /><path d="M 112.34349029814194 116.9893568818739 l 3.3518094684958326 4.613369953301756 a26.702438867636,26.702438867636 0 0,0 -0.37418085897766906,0.26696810776257746 l -3.2719012816692787 -4.670382322908552" fill="#ff2003" stroke="none" /><path d="M 111.45004920935366 117.60387380957326 l 11.995592550161087 18.44261921176607 a43.00055553888772,43.00055553888772 0 0,0 -0.623954847370988,0.3982375049940051 l -11.676355900743168 -18.646371145583885" fill="#fdff18" stroke="none" /><path d="M 111.1453310114006 117.79835938074945 l 10.026229113845073 16.011227375787236 a39.89139148719525,39.89139148719525 0 0,0 -0.5851132534142557,0.359424349697219 l -9.74913666049851 -16.181440192312834" fill="#ffd914" stroke="none" /><line stroke="#e1ed5e" stroke-width="0.3" x1="143.8653032363475" x2="146.44561519142675" y1="172.8068346515853" y2="177.08958963109032" /><path d="M 144.38136562736335 173.6633856474863 a86.0,86.0 0 0,1 -40.68145358897372,12.25698825130547" fill="none" id="id18" stroke="none" /><text fill="#e1ed5e" style="font-size:6.75px; font-family:Arial;" text-anchor="middle"><textPath startOffset="21.466115282336833" xlink:href="#id18">June</textPath></text><path d="M 110.8373102113329 117.98757091392108 l 11.363476186623725 18.860891655735657 a43.01957822242205,43.01957822242205 0 0,0 -0.637574996077403,0.3766905458504613 l -11.03713331951794 -19.053700773879868" fill="#fdff18" stroke="none" /><path d="M 110.21172684928248 118.3499491758327 l 9.966911234701712 17.910028078126956 a41.496546668151666,41.496546668151666 0 0,0 -0.6271455856523509,0.34196977717193305 l -9.657142837180713 -18.07893850705866" fill="#ffee16" stroke="none" /><path d="M 109.89434966115114 118.52300852407294 l 20.752188128511033 38.849744628173305 a65.04493126110421,65.04493126110421 0 0,0 -0.9921182489271629,0.5190293774344852 l -20.08037897705737 -39.20120342455251" fill="#34ff60" stroke="none" /><path d="M 109.2508944713604 118.85261126421891 l 11.551893173893601 23.54186960487225 a47.22338384712884,47.22338384712884 0 0,0 -0.7328334557115106,0.35180459295728855 l -11.144947050181859 -23.7372284743291" fill="#c9ff1d" stroke="none" /><path d="M 108.92500713936063 119.00905698771935 l 10.945187704115993 23.311768109546957 a46.75336223236924,46.75336223236924 0 0,0 -0.7314274189910526,0.335762453809326 l -10.54229228935752 -23.496717633690356" fill="#cfff1d" stroke="none" /><path d="M 107.93186726928326 119.44442032107085 l 23.79560180784979 58.33326096321254 a84.0,84.0 0 0,0 -1.343515695832535,0.5346126223757244 l -22.787965035975386 -58.73422042999433" fill="#4dd2ff" stroke="none" /><path d="M 107.59598834532513 119.57807347666477 l 6.816200369775237 17.56823017682201 a39.844184753571156,39.844184753571156 0 0,0 -0.641547875938659,0.24257851161041763 l -6.512782273076303 -17.68295693853906" fill="#ffd814" stroke="none" /><path d="M 107.2578585660854 119.70592522655815 l 10.804237035917264 29.334752836693752 a52.261146202885755,52.261146202885755 0 0,0 -0.8468307519957919,0.30364337887067816 l -10.297686723291738 -29.51638375660439" fill="#8eff24" stroke="none" /><path d="M 106.91757812671514 119.82793768551818 l 5.858515206143747 16.79233285251517 a38.784955525676125,38.784955525676125 0 0,0 -0.6322506753867849,0.21449375657338873 l -5.568594797819736 -16.89068959598668" fill="#ffca12" stroke="none" /><path d="M 106.57524785965236 119.94407469862006 l 5.993170468526529 18.178514644188084 a40.14096358425508,40.14096358425508 0 0,0 -0.6580798547400422,0.21069638801089616 l -5.679369268695546 -18.27898387885869" fill="#ffdc14" stroke="none" /><path d="M 105.88484417918355 120.15858648285463 l 6.408462409580199 21.952245424375587 a43.86852574231713,43.86852574231713 0 0,0 -0.7266901336644235,0.20536989048511606 l -6.02964110781117 -22.05930410819922" fill="#f2ff19" stroke="none" /><path d="M 104.83641907484287 120.43548508189849 l 5.069541043762867 21.420503221229666 a43.01222852518815,43.01222852518815 0 0,0 -0.7219497088018284,0.16431340325684243 l -4.700071185568176 -21.504593358064195" fill="#fdff18" stroke="none" /><path d="M 104.48393922423573 120.51570834832081 l 6.700340080186858 30.656575846678216 a52.38025174904262,52.38025174904262 0 0,0 -0.882503824823335,0.18493725691569718 l -6.171644793934145 -30.767369084320453" fill="#8dff24" stroke="none" /><path d="M 104.13013068566511 120.58985236759428 l 4.0661571009127115 20.27092622076571 a41.67472087881792,41.67472087881792 0 0,0 -0.7045655031269107,0.13503165555430294 l -3.7166239832140966 -20.337915074668484" fill="#fff016" stroke="none" /><path d="M 103.41894727170886 120.7198165907248 l 4.197846675458465 25.44017391295115 a46.784188283361914,46.784188283361914 0 0,0 -0.795696866904928,0.12427148627798237 l -3.75931394494502 -25.508663706576236" fill="#ceff1d" stroke="none" /><path d="M 103.06178313531738 120.77559828337769 l 1.367840830006192 9.281425347215142 a30.381676023619647,30.381676023619647 0 0,0 -0.5180385493277515,0.07179542255881445 l -1.2078736894916098 -9.303595335266559" fill="#ff5608" stroke="none" /><line stroke="#e1ed5e" stroke-width="0.3" x1="102.19456741930631" x2="102.32365962044197" y1="184.97166512339345" y2="189.96999836594603" /><path d="M 102.22038585953345 185.97133177190398 a86.0,86.0 0 0,1 -42.740103519485714,-10.115201625700543" fill="none" id="id19" stroke="none" /><text fill="#e1ed5e" style="font-size:6.75px; font-family:Arial;" text-anchor="middle"><textPath startOffset="22.20632615414155" xlink:href="#id19">July</textPath></text><line stroke="#e1ed5e" stroke-width="0.3" x1="58.666819895761336" x2="56.23545636021788" y1="174.27360380694188" y2="178.64263932499728" /><path d="M 58.180547188652646 175.14741091055294 a86.0,86.0 0 0,1 -31.652253787137756,-30.449443065178592" fill="none" id="id20" stroke="none" /><text fill="#e1ed5e" style="font-size:6.75px; font-family:Arial;" text-anchor="middle"><textPath startOffset="22.20632615414155" xlink:href="#id20">August</textPath></text><line stroke="#e1ed5e" stroke-width="0.3" x1="26.63291911575756" x2="22.317208475507996" y1="142.92168965132927" y2="145.44649492493687" /><path d="M 25.769776987707644 143.4266507060508 a86.0,86.0 0 0,1 -11.730757126820373,-40.83630448921669" fill="none" id="id21" stroke="none" /><text fill="#e1ed5e" style="font-size:6.75px; font-family:Arial;" text-anchor="middle"><textPath startOffset="21.46611528233685" xlink:href="#id21">September</textPath></text><line stroke="#e1ed5e" stroke-width="0.3" x1="15.007084014347285" x2="10.007500721073583" y1="101.09737516637583" y2="101.16192664675087" /><path d="M 14.007167355692545 101.11028546245083 a86.0,86.0 0 0,1 10.666146001902534,-42.60595125391555" fill="none" id="id22" stroke="none" /><text fill="#e1ed5e" style="font-size:6.75px; font-family:Arial;" text-anchor="middle"><textPath startOffset="22.20632615414155" xlink:href="#id22">October</textPath></text><line stroke="#e1ed5e" stroke-width="0.3" x1="26.266209847984243" x2="21.928928074336255" y1="57.711370442889674" y2="55.22380399835377" /><path d="M 25.398753493254645 57.213857153982495 a86.0,86.0 0 0,1 29.58750427330803,-30.492523968695096" fill="none" id="id23" stroke="none" /><text fill="#e1ed5e" style="font-size:6.75px; font-family:Arial;" text-anchor="middle"><textPath startOffset="21.46611528233685" xlink:href="#id23">November</textPath></text><line stroke="#e1ed5e" stroke-width="0.3" x1="56.762969772571076" x2="54.21961505331055" y1="26.818313649435495" y2="22.513508569990535" /><path d="M 56.25429882871897 25.957352633546506 a86.0,86.0 0 0,1 42.265352541879196,-11.944610805530505" fill="none" id="id24" stroke="none" /><text fill="#e1ed5e" style="font-size:6.75px; font-family:Arial;" text-anchor="middle"><textPath startOffset="22.20632615414155" xlink:href="#id24">December</textPath></text></svg>