<?xml version="1.0" encoding="utf-8" ?>
<svg baseProfile="full" height="200mm" version="1.1" viewBox="0,0,200,200" width="200mm" xmlns="http://www.w3.org/2000/svg" xmlns:ev="http://www.w3.org/2001/xml-events" xmlns:xlink="http://www.w3.org/1999/xlink"><defs /><rect fill="#1a1a1a" height="200" width="200" x="0" y="0" /><text alignment-baseline="middle" fill="#e1ed5e" style="dominant-baseline: central; font-size:9.0px; font-family:Arial;" text-anchor="middle" x="100.0" y="100.0">2022</text><line stroke="#e1ed5e" stroke-width="0.3" x1="100.0" x2="100.0" y1="15.0" y2="10.0" /><path d="M 100.0 14.0 a86.0,86.0 0 0,1 42.46469731375804,11.215312516191453" fill="none" id="id1" stroke="none" /><text fill="#e1ed5e" style="font-size:6.75px; font-family:Arial;" text-anchor="middle"><textPath startOffset="22.20632615414155" xlink:href="#id1">January</textPath></text><line stroke="#e1ed5e" stroke-width="0.3" x1="143.23703022742887" x2="145.7803849466894" y1="26.81831364943548" y2="22.513508569990506" /><path d="M 143.74570117128098 25.957352633546492 a86.0,86.0 0 0,1 28.547481713284135,27.462654790039103" fill="none" id="id2" stroke="none" /><text fill="#e1ed5e" style="font-size:6.75px; font-family:Arial;" text-anchor="middle"><textPath startOffset="19.985693538727396" xlink:href="#id2">February</textPath></text><line stroke="#e1ed5e" stroke-width="0.3" x1="172.23445277983987" x2="176.4835382374775" y1="55.19839476539836" y2="52.563006222186495" /><path d="M 173.08426987136738 54.67131705675599 a86.0,86.0 0 0,1 12.851231095245387,41.99856678651699" fill="none" id="id3" stroke="none" /><text fill="#e1ed5e" style="font-size:6.75px; font-family:Arial;" text-anchor="middle"><textPath startOffset="22.20632615414155" xlink:href="#id3">March</textPath></text><line stroke="#e1ed5e" stroke-width="0.3" x1="184.98032266829074" x2="189.97916517819016" y1="98.17113171792111" y2="98.06355123074" /><path d="M 185.9800911702706 98.14961562048488 a86.0,86.0 0 0,1 -9.607161424134198,41.387399972396054" fill="none" id="id4" stroke="none" /><text fill="#e1ed5e" style="font-size:6.75px; font-family:Arial;" text-anchor="middle"><textPath startOffset="21.466115282336823" xlink:href="#id4">April</textPath></text><line stroke="#e1ed5e" stroke-width="0.3" x1="174.80103733775053" x2="179.2010983576182" y1="140.37084112569926" y2="142.7455964860345" /><path d="M 175.68104954172406 140.8457921977663 a86.0,86.0 0 0,1 -30.038265399797805,32.042727171017184" fill="none" id="id5" stroke="none" /><text fill="#e1ed5e" style="font-size:6.75px; font-family:Arial;" text-anchor="middle"><textPath startOffset="22.206326154141568" xlink:href="#id5">May</textPath></text><line stroke="#e1ed5e" stroke-width="0.3" x1="143.8653032363475" x2="146.44561519142675" y1="172.8068346515853" y2="177.08958963109032" /><path d="M 144.38136562736335 173.6633856474863 a86.0,86.0 0 0,1 -40.68145358897372,12.25698825130547" fill="none" id="id6" stroke="none" /><text fill="#e1ed5e" style="font-size:6.75px; font-family:Arial;" text-anchor="middle"><textPath startOffset="21.466115282336833" xlink:href="#id6">June</textPath></text><path d="M 106.57524785965236 119.94407469862006 l 2.007143397515921 6.088077393483388 a27.410406458816418,27.410406458816418 0 0,0 -0.44937227934056745,0.143874813135987 l -1.9020497730844135 -6.121725053279082" fill="#ff2403" stroke="none" /><path d="M 106.2309692047433 120.05430185196036 l 7.360368714871255 23.689261028186156 a45.806372481287845,45.806372481287845 0 0,0 -0.7549872307564465,0.2274714593722263 l -6.951506509674562 -23.812447856664107" fill="#deff1b" stroke="none" /><path d="M 105.53697534728816 120.25689768951611 l 5.253335940782582 19.219209407029435 a40.92424524889128,40.92424524889128 0 0,0 -0.6811149921530321,0.17988865998544612 l -4.9217305058180525 -19.306789416318466" fill="#ffe215" stroke="none" /><path d="M 104.83641907484287 120.43548508189849 l 3.530611284832452 14.91801126508463 a36.33011011538333,36.33011011538333 0 0,0 -0.6097919898100564,0.13878667156849805 l -3.2732991456295335 -14.976574670230812" fill="#ffa40f" stroke="none" /><path d="M 104.13013068566511 120.58985236759428 l 5.85428712832685 29.185252686585628 a50.766619763768055,50.766619763768055 0 0,0 -0.8582759102315157,0.16449062090975275 l -5.35104360352363 -29.281700505843848" fill="#a2ff22" stroke="none" /><path d="M 103.7750983002368 120.6578951692458 l 3.770007530305962 20.630037724697775 a41.97168122256814,41.97168122256814 0 0,0 -0.7118217826888042,0.12375934110307678 l -3.4143367761451078 -20.691875644321858" fill="#ffef16" stroke="none" /><path d="M 103.41894727170886 120.7198165907248 l 3.226558943476864 19.55388726851834 a40.81830441601032,40.81830441601032 0 0,0 -0.6942302117004275,0.10842448150219824 l -2.8894928681679195 -19.606530057367646" fill="#ffe015" stroke="none" /><path d="M 102.34483914955558 120.86867818915974 l 4.118713636228563 36.65586590195243 a57.886532868232194,57.886532868232194 0 0,0 -0.9911481102349851,0.1027365541859768 l -3.4871329293879754 -36.72133182459417" fill="#53ff2b" stroke="none" /><path d="M 101.98527174616119 120.90594882070398 l 1.5170759333461294 15.975602272577138 a37.04747292750824,37.04747292750824 0 0,0 -0.6353741851504044,0.05482275820991872 l -1.2418574304541832 -15.99934928306572" fill="#ffae10" stroke="none" /><path d="M 101.62511606390274 120.93702456842531 l 1.0038671207049594 12.933224301013432 a33.97212550110262,33.97212550110262 0 0,0 -0.5834101691042546,0.04023538102442608 l -0.7810941908217744 -12.948588026554143" fill="#ff830c" stroke="none" /><path d="M 101.26447882468166 120.96189622390904 l 0.9036021009804803 14.979462762634652 a36.006691887756425,36.006691887756425 0 0,0 -0.6189926375447449,0.03199484897520916 l -0.6456213950222559 -14.992797418372064" fill="#ffa00e" stroke="none" /><path d="M 100.90346689309514 120.98055641714683 l 0.9844683387840178 22.861594243916358 a43.88278106532372,43.88278106532372 0 0,0 -0.7549502719437324,0.026002013829496094 l -0.5907977151656331 -22.87515305617195" fill="#f6ff19" stroke="none" /><line stroke="#e1ed5e" stroke-width="0.3" x1="102.19456741930631" x2="102.32365962044197" y1="184.97166512339345" y2="189.96999836594603" /><path d="M 102.22038585953345 185.97133177190398 a86.0,86.0 0 0,1 -42.740103519485714,-10.115201625700543" fill="none" id="id7" stroke="none" /><text fill="#e1ed5e" style="font-size:6.75px; font-family:Arial;" text-anchor="middle"><textPath startOffset="22.20632615414155" xlink:href="#id7">July</textPath></text><path d="M 100.54218724476979 120.99299961872073 l 0.24102156145548745 9.33213681536686 a30.335248734437233,30.335248734437233 0 0,0 -0.5221134147503831,0.008988655928208517 l -0.08034845681243637 -9.334902948574229" fill="#ff4f07" stroke="none" /><path d="M 99.81925306533755 120.99922214144158 l -0.25891906020320704 30.081278401840784 a51.08239268025051,51.08239268025051 0 0,0 -0.8792017072082977,-0.015136254718464146 l 0.7766804573041727 -30.07236466984316" fill="#9fff22" stroke="none" /><path d="M 99.09653310690486 120.98055641714683 l -0.6523596313903626 15.149274594629063 a36.16331407813415,36.16331407813415 0 0,0 -0.6216851365674704,-0.03213402041986514 l 0.9130328363713219 -15.135800767446995" fill="#ffa20e" stroke="none" /><path d="M 98.01472825383883 120.90594882070398 l -1.8099588384453638 19.059812298888982 a40.14555812364179,40.14555812364179 0 0,0 -0.6873825758255766,-0.07125001452209974 l 2.1377740108765337 -19.02583291591112" fill="#ffd714" stroke="none" /><path d="M 97.65516085044442 120.86867818915974 l -1.324827297861296 11.790742465435835 a32.8649389065174,32.8649389065174 0 0,0 -0.5616345388876455,-0.06800612112649686 l 1.527589259800331 -11.76619081558399" fill="#ff730a" stroke="none" /><path d="M 97.2962882734958 120.8252237178851 l -5.538724808377009 42.66179049916271 a64.01983078880461,64.01983078880461 0 0,0 -1.09160338107276,-0.15128628190401616 l 6.2722567806366 -42.5601296517661" fill="#33ff51" stroke="none" /><path d="M 96.22490169976321 120.6578951692458 l -3.891273177284036 21.293621245886346 a42.6462540108794,42.6462540108794 0 0,0 -0.7209905376697111,-0.1381795525163387 l 4.2572313295254425 -21.22348449502154" fill="#fff817" stroke="none" /><path d="M 95.51606077576429 120.51570834832081 l -5.514055609900706 25.22887823673106 a46.82442848066302,46.82442848066302 0 0,0 -0.7859365502680329,-0.17887660005127534 l 5.947512309561602 -25.130224903102096" fill="#d2ff1c" stroke="none" /><path d="M 95.16358092515715 120.4354850818985 l -5.550684131021084 23.45349337980969 a45.101378509104954,45.101378509104954 0 0,0 -0.7539376561511643,-0.18529953266991558 l 5.953575071915458 -23.354472588825743" fill="#e7ff1a" stroke="none" /><path d="M 94.81253420990036 120.34920634021253 l -4.913028398099829 19.272653097599882 a40.88901720701558,40.88901720701558 0 0,0 -0.6805286808522576,-0.17973380984201145 l 5.244047521763576 -19.18522793845429" fill="#ffe115" stroke="none" /><path d="M 94.11515582081647 120.15858648285463 l -3.448115595172016 11.811550877426725 a33.30456156422115,33.30456156422115 0 0,0 -0.5489305820320216,-0.16538828142002104 l 3.650921151644283 -11.750447226900977" fill="#ff7a0b" stroke="none" /><path d="M 93.08242187328487 119.8279376855182 l -6.294000432293466 18.04056941289659 a40.106977421435616,40.106977421435616 0 0,0 -0.6498866618466546,-0.23302623507829773 l 6.603606654769847 -17.929555636778336" fill="#ffd714" stroke="none" /><path d="M 92.7421414339146 119.70592522655815 l -4.2173737531760676 11.45065739099422 a33.202614312511436,33.202614312511436 0 0,0 -0.5346091736986172,-0.2021434448042444 l 4.413853147634968 -11.376365696083342" fill="#ff780b" stroke="none" /><path d="M 92.40401165467489 119.57807347666478 l -2.752065118046912 7.093235355850517 a28.608406549827524,28.608406549827524 0 0,0 -0.4575695622911013,-0.18207637199517154 l 2.8737557563798712 -7.044812139449279" fill="#ff3505" stroke="none" /><path d="M 92.06813273071674 119.44442032107085 l -2.621465085803928 6.42633912733006 a27.940454868057444,27.940454868057444 0 0,0 -0.4437590063390583,-0.18549130063964805 l 2.7316955516404486 -6.380262783670438" fill="#ff2c04" stroke="none" /><path d="M 91.07499286063937 119.00905698771935 l -12.795396808065856 27.252463029674445 a51.10679193570172,51.10679193570172 0 0,0 -0.7930979081425038,-0.3807351923889136 l 13.262607384208602 -27.02817356078597" fill="#9eff22" stroke="none" /><path d="M 90.7491055286396 118.85261126421891 l -5.173942113497941 10.544095997562902 a32.745111212740795,32.745111212740795 0 0,0 -0.5038787967090768,-0.2526552890221625 l 5.354674817889778 -10.453472867631438" fill="#ff720a" stroke="none" /><path d="M 90.10565033884886 118.52300852407294 l -7.872354122949972 14.737672259195048 a37.708469201473086,37.708469201473086 0 0,0 -0.5698956154238808,-0.31075252872113696 l 8.124872550242493 -14.599979078714144" fill="#ffb711" stroke="none" /><line stroke="#e1ed5e" stroke-width="0.3" x1="58.666819895761336" x2="56.23545636021788" y1="174.27360380694188" y2="178.64263932499728" /><path d="M 58.180547188652646 175.14741091055294 a86.0,86.0 0 0,1 -31.652253787137756,-30.449443065178592" fill="none" id="id8" stroke="none" /><text fill="#e1ed5e" style="font-size:6.75px; font-family:Arial;" text-anchor="middle"><textPath startOffset="22.20632615414155" xlink:href="#id8">August</textPath></text><path d="M 89.4739219176387 118.17145234162733 l -5.166693147185532 8.919401656845125 a31.307785600860424,31.307785600860424 0 0,0 -0.463999465044893,-0.27413906260035265 l 5.3194604832588075 -8.829144021951022" fill="#ff5d08" stroke="none" /><path d="M 89.1626897886671 117.98757091392108 l -9.204955971503718 15.278218955456108 a38.83690524973938,38.83690524973938 0 0,0 -0.5696464108179926,-0.34992335171162847 l 9.466581582254019 -15.117507136916101" fill="#ffc612" stroke="none" /><path d="M 88.8546689885994 117.79835938074946 l -16.088074913469725 25.691595768798106 a51.31310356213528,51.31310356213528 0 0,0 -0.7445731642301645,-0.47522182167167465 l 16.527929879746814 -25.41085951830263" fill="#9cff22" stroke="none" /><path d="M 87.95078237400918 117.19931262002967 l -35.718755658334985 50.985720736008346 a83.25249573109554,83.25249573109554 0 0,0 -1.16661592295422,-0.8323494854539594 l 36.59109890913809 -50.36332698871016" fill="#4cd9ff" stroke="none" /><path d="M 87.36589467227662 116.77436683061367 l -8.899367069060219 11.81573557481172 a35.7922392288573,35.7922392288573 0 0,0 -0.48894119893559984,-0.37489926182151395 l 9.101436996489307 -11.66079697116284" fill="#ff9d0e" stroke="none" /><path d="M 87.07902340077011 116.55440617244103 l -9.460127090192444 12.120352133699592 a36.37520537773298,36.37520537773298 0 0,0 -0.4902728253825992,-0.38950238383573044 l 9.6673574082924 -11.955715835858731" fill="#ffa50f" stroke="none" /><path d="M 86.51685102203217 116.09983520530335 l -9.261182516080051 11.0585081095498 a35.42428865508194,35.42428865508194 0 0,0 -0.4641164179387024,-0.3955300801580247 l 9.45016441059581 -10.897453639168823" fill="#ff980e" stroke="none" /><path d="M 85.70375840098266 115.38237550388516 l -21.564160416527372 23.20246273508982 a52.67597340955693,52.67597340955693 0 0,0 -0.658861457298704,-0.6229946319345856 l 21.960357708216893 -22.827833466409306" fill="#8cff24" stroke="none" /><path d="M 84.9287848128048 114.62390073753433 l -11.037486759863572 10.709893579466131 a36.37946469997098,36.37946469997098 0 0,0 -0.4322113384277733,-0.45317186038336005 l 11.220204649670302 -10.51831460250027" fill="#ffa50f" stroke="none" /><path d="M 84.67929136418377 114.36230785411682 l -10.99236623367118 10.304728824625487 a36.06716800079636,36.06716800079636 0 0,0 -0.42070392167697956,-0.45659101694670595 l 11.168116563343888 -10.113986552877437" fill="#ffa00e" stroke="none" /><path d="M 84.19399662182784 113.82643327865904 l -6.78527341984631 5.935474513849728 a30.014976044706525,30.014976044706525 0 0,0 -0.3368216157137492,-0.3917996334272443 l 6.886437545130838 -5.817797781260953" fill="#ff4a06" stroke="none" /><path d="M 83.72743513129214 113.27417163493432 l -11.918740668544094 9.722585872788056 a36.38132163299841,36.38132163299841 0 0,0 -0.3916745312853303,-0.48867420049076143 l 12.084333111884286 -9.515983838719034" fill="#ffa50f" stroke="none" /><path d="M 83.50135304334701 112.99209946851258 l -19.800460906952743 15.592160878488915 a46.20265329262862,46.20265329262862 0 0,0 -0.4866529492746007,-0.6290645384151574 l 20.065920673445415 -15.249018345960504" fill="#d9ff1c" stroke="none" /><path d="M 83.28015986056508 112.70617746262583 l -3.2430476389015834 2.464541435563384 a25.073244711012826,25.073244711012826 0 0,0 -0.25818127029302723,-0.34587600293770376 l 3.2849901758896958 -2.408352553116372" fill="#ff0000" stroke="none" /><path d="M 82.6465618267979 111.8261652097733 l -13.723307095079946 9.352273325380027 a37.607051935201696,37.607051935201696 0 0,0 -0.35994765017299635,-0.5380728986701265 l 13.882257850663672 -9.11466351250408" fill="#ffb510" stroke="none" /><path d="M 82.24976979558568 111.22182372390057 l -26.251865136921882 16.596618725366465 a52.05814186783104,52.05814186783104 0 0,0 -0.4723293723335171,-0.7615453411478682 l 26.533659148923356 -16.142277052853334" fill="#93ff23" stroke="none" /><line stroke="#e1ed5e" stroke-width="0.3" x1="26.63291911575756" x2="22.317208475507996" y1="142.92168965132927" y2="145.44649492493687" /><path d="M 25.769776987707644 143.4266507060508 a86.0,86.0 0 0,1 -11.730757126820373,-40.83630448921669" fill="none" id="id9" stroke="none" /><text fill="#e1ed5e" style="font-size:6.75px; font-family:Arial;" text-anchor="middle"><textPath startOffset="21.46611528233685" xlink:href="#id9">September</textPath></text><path d="M 81.51974371655577 109.97397251340807 l -27.15122925067272 14.653780234317171 a51.85324172559912,51.85324172559912 0 0,0 -0.4171654823785072,-0.7891198797433832 l 27.39944724127611 -14.184245339487662" fill="#96ff23" stroke="none" /><path d="M 81.18737489456691 109.33194174019688 l -10.594734585016894 5.255483769337069 a32.826601818642516,32.826601818642516 0 0,0 -0.246741533022765,-0.5083606404548864 l 10.683629374654378 -5.072334172916897" fill="#ff730a" stroke="none" /><path d="M 81.02952815118164 109.00673069616217 l -11.823484186271084 5.613510238687543 a34.0884023281244,34.0884023281244 0 0,0 -0.24710095741508958,-0.5322334791389381 l 11.918359760526 -5.409156692269778" fill="#ff850c" stroke="none" /><path d="M 80.87730276802145 108.67885076344099 l -17.314463049250573 7.858182296703731 a40.01424885952878,40.01424885952878 0 0,0 -0.27925928134024564,-0.6296559571250729 l 17.447163415322102 -7.558978003085962" fill="#ffd614" stroke="none" /><path d="M 80.58989483394504 108.01547362559985 l -14.187892812080555 5.85894201320204 a36.35003270228279,36.35003270228279 0 0,0 -0.23384735189223174,-0.5803899497147674 l 14.286642778230174 -5.613852695644468" fill="#ffa40f" stroke="none" /><path d="M 80.32549172779594 107.34259656027581 l -44.34100744918657 16.54822190578124 a68.32830643337871,68.32830643337871 0 0,0 -0.4017565776725198,-1.1054615541705484 l 44.619288287864315 -15.782512554604576" fill="#39ff85" stroke="none" /><path d="M 80.0844068197444 106.66101706037122 l -14.042303220717455 4.696622414080879 a35.8069085849484,35.8069085849484 0 0,0 -0.19047186457578685,-0.586212121899976 l 14.121067336309492 -4.4542113922031" fill="#ff9d0e" stroke="none" /><path d="M 79.97269907076064 106.31721596034903 l -22.580454275691483 7.122557684948485 a44.67715657066981,44.67715657066981 0 0,0 -0.2250308117013662,-0.7354137128356953 l 22.69971185989898 -6.732816999560741" fill="#ecff1a" stroke="none" /><path d="M 79.76711848015287 105.62410040840567 l -29.620744070567632 8.233628940155928 a51.74379815211908,51.74379815211908 0 0,0 -0.23115167819205737,-0.8602013850875985 l 29.758083825101465 -7.72253662189279" fill="#97ff23" stroke="none" /><path d="M 79.58551787078972 104.9243191809786 l -14.404507358328718 3.474611377756732 a35.81765016669589,35.81765016669589 0 0,0 -0.1394149740153847,-0.6005960592294137 l 14.462182898274659 -3.2261466611787437" fill="#ff9d0e" stroke="none" /><path d="M 79.35854240842038 103.8639653848113 l -30.236237349613596 5.660054478589978 a51.76144121725727,51.76144121725727 0 0,0 -0.15640226642313945,-0.8771869697260402 l 30.32918605837592 -5.138748758130725" fill="#97ff23" stroke="none" /><path d="M 79.29508885075956 103.50808413554451 l -13.942939034004823 2.3623865311709387 a35.14165545573195,35.14165545573195 0 0,0 -0.09591704950297765,-0.5972755588150251 l 13.981537837869093 -2.1220317426627" fill="#ff940d" stroke="none" /><path d="M 79.1416061653843 102.43462659150553 l -62.5751815038471 7.303879774516597 a84.0,84.0 0 0,0 -0.15527079399579247,-1.4376147124608716 l 62.69163459934394 -6.225668740170943" fill="#4dd2ff" stroke="none" /><line stroke="#e1ed5e" stroke-width="0.3" x1="15.007084014347285" x2="10.007500721073583" y1="101.09737516637583" y2="101.16192664675087" /><path d="M 14.007167355692545 101.11028546245083 a86.0,86.0 0 0,1 10.666146001902534,-42.60595125391555" fill="none" id="id10" stroke="none" /><text fill="#e1ed5e" style="font-size:6.75px; font-family:Arial;" text-anchor="middle"><textPath startOffset="22.20632615414155" xlink:href="#id10">October</textPath></text><line stroke="#e1ed5e" stroke-width="0.3" x1="26.266209847984243" x2="21.928928074336255" y1="57.711370442889674" y2="55.22380399835377" /><path d="M 25.398753493254645 57.213857153982495 a86.0,86.0 0 0,1 29.58750427330803,-30.492523968695096" fill="none" id="id11" stroke="none" /><text fill="#e1ed5e" style="font-size:6.75px; font-family:Arial;" text-anchor="middle"><textPath startOffset="21.46611528233685" xlink:href="#id11">November</textPath></text><line stroke="#e1ed5e" stroke-width="0.3" x1="56.762969772571076" x2="54.21961505331055" y1="26.818313649435495" y2="22.513508569990535" /><path d="M 56.25429882871897 25.957352633546506 a86.0,86.0 0 0,1 42.265352541879196,-11.944610805530505" fill="none" id="id12" stroke="none" /><text fill="#e1ed5e" style="font-size:6.75px; font-family:Arial;" text-anchor="middle"><textPath startOffset="22.20632615414155" xlink:href="#id12">December</textPath></text></svg>