<?xml version="1.0" encoding="utf-8" ?>
<svg baseProfile="full" height="200mm" version="1.1" viewBox="0,0,200,200" width="200mm" xmlns="http://www.w3.org/2000/svg" xmlns:ev="http://www.w3.org/2001/xml-events" xmlns:xlink="http://www.w3.org/1999/xlink"><defs /><rect fill="#1a1a1a" height="200" width="200" x="0" y="0" /><text alignment-baseline="middle" fill="#e1ed5e" style="dominant-baseline: central; font-size:9.0px; font-family:Arial;" text-anchor="middle" x="100.0" y="100.0">2022</text><line stroke="#e1ed5e" stroke-width="0.3" x1="100.0" x2="100.0" y1="15.0" y2="10.0" /><path d="M 100.0 14.0 a86.0,86.0 0 0,1 42.46469731375804,11.215312516191453" fill="none" id="id1" stroke="none" /><text fill="#e1ed5e" style="font-size:6.75px; font-family:Arial;" text-anchor="middle"><textPath startOffset="22.20632615414155" xlink:href="#id1">January</textPath></text><line stroke="#e1ed5e" stroke-width="0.3" x1="143.23703022742887" x2="145.7803849466894" y1="26.81831364943548" y2="22.513508569990506" /><path d="M 143.74570117128098 25.957352633546492 a86.0,86.0 0 0,1 28.547481713284135,27.462654790039103" fill="none" id="id2" stroke="none" /><text fill="#e1ed5e" style="font-size:6.75px; font-family:Arial;" text-anchor="middle"><textPath startOffset="19.985693538727396" xlink:href="#id2">February</textPath></text><line stroke="#e1ed5e" stroke-width="0.3" x1="172.23445277983987" x2="176.4835382374775" y1="55.19839476539836" y2="52.563006222186495" /><path d="M 173.08426987136738 54.67131705675599 a86.0,86.0 0 0,1 12.851231095245387,41.99856678651699" fill="none" id="id3" stroke="none" /><text fill="#e1ed5e" style="font-size:6.75px; font-family:Arial;" text-anchor="middle"><textPath startOffset="22.20632615414155" xlink:href="#id3">March</textPath></text><line stroke="#e1ed5e" stroke-width="0.3" x1="184.98032266829074" x2="189.97916517819016" y1="98.17113171792111" y2="98.06355123074" /><path d="M 185.9800911702706 98.14961562048488 a86.0,86.0 0 0,1 -9.607161424134198,41.387399972396054" fill="none" id="id4" stroke="none" /><text fill="#e1ed5e" style="font-size:6.75px; font-family:Arial;" text-anchor="middle"><textPath startOffset="21.466115282336823" xlink:href="#id4">April</textPath></text><line stroke="#e1ed5e" stroke-width="0.3" x1="174.80103733775053" x2="179.2010983576182" y1="140.37084112569926" y2="142.7455964860345" /><path d="M 175.68104954172406 140.8457921977663 a86.0,86.0 0 0,1 -30.038265399797805,32.042727171017184" fill="none" id="id5" stroke="none" /><text fill="#e1ed5e" style="font-size:6.75px; font-family:Arial;" text-anchor="middle"><textPath startOffset="22.206326154141568" xlink:href="#id5">May</textPath></text><line stroke="#e1ed5e" stroke-width="0.3" x1="143.8653032363475" x2="146.44561519142675" y1="172.8068346515853" y2="177.08958963109032" /><path d="M 144.38136562736335 173.6633856474863 a86.0,86.0 0 0,1 -40.68145358897372,12.25698825130547" fill="none" id="id6" stroke="none" /><text fill="#e1ed5e" style="font-size:6.75px; font-family:Arial;" text-anchor="middle"><textPath startOffset="21.466115282336833" xlink:href="#id6">June</textPath></text><path d="M 106.57524785965236 119.94407469862006 l 2.9393428966347797 8.915629577261548 a30.38766144590538,30.38766144590538 0 0,0 -0.4981820575441997,0.1595021627547969 l -2.7854394939996396 -8.964904586676052" fill="#ff0000" stroke="none" /><path d="M 106.2309692047433 120.05430185196036 l 10.778825033350948 34.69152289562498 a57.32746660472301,57.32746660472301 0 0,0 -0.9448795639921764,0.28468446166558964 l -10.180070494918526 -34.8719227263963" fill="#76ff27" stroke="none" /><path d="M 105.53697534728816 120.25689768951611 l 7.6932000475332165 28.145396447211336 a50.17787977461799,50.17787977461799 0 0,0 -0.8351261209849835,0.22056439889533194 l -7.207583483736736 -28.273652195410254" fill="#d2ff1c" stroke="none" /><path d="M 104.83641907484287 120.43548508189849 l 5.1703715906369565 21.846545940968973 a43.450040354888756,43.450040354888756 0 0,0 -0.7292982730078715,0.16598591254526687 l -4.7935531682362225 -21.932308587091924" fill="#ffce13" stroke="none" /><path d="M 104.13013068566511 120.58985236759428 l 8.57325754941306 42.74007790224471 a64.59145563179227,64.59145563179227 0 0,0 -1.0920027891067206,0.20928493352084585 l -7.8362871457346355 -42.88132003411402" fill="#31ff41" stroke="none" /><path d="M 103.7750983002368 120.6578951692458 l 5.520953245382937 30.211471147724478 a51.71178786146279,51.71178786146279 0 0,0 -0.8770098301847207,0.152479400552474 l -5.000094443726166 -30.302029126797958" fill="#bdff1f" stroke="none" /><path d="M 103.41894727170886 120.7198165907248 l 4.7251049042234206 28.635512398092484 a50.0227356852731,50.0227356852731 0 0,0 -0.8507774852842847,0.13287394607870803 l -4.231491555330619 -28.712604651518298" fill="#d4ff1c" stroke="none" /><path d="M 102.34483914955558 120.86867818915974 l 6.031612731259875 53.68034949184354 a75.0181476330535,75.0181476330535 0 0,0 -1.284480026279743,0.13314160664585983 l -5.10670010837453 -53.77622046694516" fill="#40ffc7" stroke="none" /><path d="M 101.98527174616119 120.90594882070398 l 2.2216680551351353 23.395325474740815 a44.50057580180248,44.50057580180248 0 0,0 -0.7631969161329721,0.06585184128909664 l -1.8186268212606216 -23.430101568308576" fill="#ffdd14" stroke="none" /><path d="M 101.62511606390274 120.93702456842531 l 1.4701040763012676 18.939942719995223 a39.996911228719725,39.996911228719725 0 0,0 -0.6868750306140801,0.04737092364254488 l -1.1438662849082573 -18.96244198815405" fill="#ff9a0e" stroke="none" /><path d="M 101.26447882468166 120.96189622390904 l 1.3232718799206624 21.936538027750014 a42.976413472427915,42.976413472427915 0 0,0 -0.7388094304924838,0.03818800857442928 l -0.9454743810146989 -21.956065843086645" fill="#ffc712" stroke="none" /><path d="M 100.90346689309514 120.98055641714683 l 1.4416957065189915 33.479453799747304 a54.51048064769602,54.51048064769602 0 0,0 -0.9377870132592996,0.032299280885228356 l -0.8651883415850395 -33.49930987905863" fill="#99ff23" stroke="none" /><line stroke="#e1ed5e" stroke-width="0.3" x1="102.19456741930631" x2="102.32365962044197" y1="184.97166512339345" y2="189.96999836594603" /><path d="M 102.22038585953345 185.97133177190398 a86.0,86.0 0 0,1 -42.740103519485714,-10.115201625700543" fill="none" id="id7" stroke="none" /><text fill="#e1ed5e" style="font-size:6.75px; font-family:Arial;" text-anchor="middle"><textPath startOffset="22.20632615414155" xlink:href="#id7">July</textPath></text><path d="M 100.54218724476979 120.99299961872073 l 0.35296183395605674 13.666362897947812 a34.67092011953234,34.67092011953234 0 0,0 -0.5967365771290623,0.010273361342677641 l -0.11766556693432657 -13.67041373656965" fill="#ff4706" stroke="none" /><path d="M 99.81925306533755 120.99922214144158 l -0.3791716632471509 44.05225461298538 a65.05388640786987,65.05388640786987 0 0,0 -1.1196712798546495,-0.01927615648818747 l 1.1374026329944682 -44.03920097921804" fill="#32ff47" stroke="none" /><path d="M 99.09653310690486 120.98055641714683 l -0.9553421299901592 22.185217420938873 a43.20577741489056,43.20577741489056 0 0,0 -0.7427524362022141,-0.03839181693100719 l 1.3370826346058622 -22.165485797245662" fill="#ffca12" stroke="none" /><path d="M 98.01472825383883 120.90594882070398 l -2.65057776219176 27.91196880166463 a49.03753849499854,49.03753849499854 0 0,0 -0.8396333516904708,-0.08703142995635904 l 3.130643710487824 -27.862208003252512" fill="#e1ff1b" stroke="none" /><path d="M 97.65516085044442 120.86867818915974 l -1.9401312891026565 17.26684558498465 a38.37550188842495,38.37550188842495 0 0,0 -0.6558054883045398,-0.0794089116409949 l 2.237064200458586 -17.230891144618305" fill="#ff810b" stroke="none" /><path d="M 97.2962882734958 120.8252237178851 l -8.111135179512582 62.47567115365527 a84.0,84.0 0 0,0 -1.4322856352526758,-0.19850173802958038 l 9.185349405952088 -62.32679485013308" fill="#4dd2ff" stroke="none" /><path d="M 96.22490169976321 120.6578951692458 l -5.698539619376922 31.18325000106575 a52.69965984711154,52.69965984711154 0 0,0 -0.8909564736562033,-0.17075392867048614 l 6.234463707604822 -31.080538874046795" fill="#b0ff20" stroke="none" /><path d="M 95.51606077576429 120.51570834832081 l -8.075008596132074 36.94620131624701 a58.81834945536703,58.81834945536703 0 0,0 -0.9872515728088651,-0.22469524375612537 l 8.709780318333802 -36.801729338913205" fill="#64ff29" stroke="none" /><path d="M 95.16358092515715 120.4354850818985 l -8.128648900807198 34.3462551069013 a56.295044592986955,56.295044592986955 0 0,0 -0.9410566899810742,-0.2312888386018327 l 8.718658875531482 -34.201245009985435" fill="#82ff25" stroke="none" /><path d="M 94.81253420990036 120.34920634021253 l -7.194839761220964 28.223661573879728 a50.12629038903755,50.12629038903755 0 0,0 -0.8342675027321531,-0.2203376300109 l 7.679597706764606 -28.095632594565245" fill="#d2ff1c" stroke="none" /><path d="M 94.11515582081647 120.15858648285463 l -5.049561528084131 17.29731827470446 a39.019303291812705,39.019303291812705 0 0,0 -0.6431217785334511,-0.193767316263735 l 5.346558281057828 -17.207835589334998" fill="#ff8b0c" stroke="none" /><path d="M 93.08242187328487 119.8279376855182 l -9.217191698896185 26.419347825706936 a48.981039336484386,48.981039336484386 0 0,0 -0.7936804564872166,-0.28458557389823874 l 9.67059171601313 -26.25677471076874" fill="#e2ff1b" stroke="none" /><path d="M 92.7421414339146 119.70592522655815 l -6.176094642362844 16.768811090265128 a38.870007566098614,38.870007566098614 0 0,0 -0.6258622417795741,-0.23664754693781498 l 6.463827104902701 -16.660015293220678" fill="#ff890c" stroke="none" /><path d="M 92.40401165467489 119.57807347666478 l -4.030236736358236 10.387624014896778 a32.142061785233096,32.142061785233096 0 0,0 -0.5140876726771526,-0.20456609451864669 l 4.208445485077247 -10.316711075972064" fill="#ff1d03" stroke="none" /><path d="M 92.06813273071674 119.44442032107085 l -3.838980706744813 9.410993897427261 a31.16388601884988,31.16388601884988 0 0,0 -0.49495454382164006,-0.20689103945944834 l 4.000406710063915 -9.34351781494784" fill="#ff0d01" stroke="none" /><path d="M 91.07499286063937 119.00905698771935 l -18.738102501275513 39.90962166490654 a65.08961767564202,65.08961767564202 0 0,0 -1.0100896116761553,-0.4849043966491756 l 19.422304780951908 -39.5811629917578" fill="#32ff47" stroke="none" /><path d="M 90.7491055286396 118.85261126421891 l -7.576932479129997 15.441205501425012 a38.2000213119209,38.2000213119209 0 0,0 -0.5878184577801194,-0.29474437764196276 l 7.841604844592877 -15.308493282873748" fill="#ff7f0b" stroke="none" /><path d="M 90.10565033884886 118.52300852407294 l -11.528597408498298 21.582450123697644 a45.46856578447397,45.46856578447397 0 0,0 -0.6871755027162899,-0.37470287428948934 l 11.898395723083228 -21.380806597648387" fill="#ffeb16" stroke="none" /><line stroke="#e1ed5e" stroke-width="0.3" x1="58.666819895761336" x2="56.23545636021788" y1="174.27360380694188" y2="178.64263932499728" /><path d="M 58.180547188652646 175.14741091055294 a86.0,86.0 0 0,1 -31.652253787137756,-30.449443065178592" fill="none" id="id8" stroke="none" /><text fill="#e1ed5e" style="font-size:6.75px; font-family:Arial;" text-anchor="middle"><textPath startOffset="22.20632615414155" xlink:href="#id8">August</textPath></text><path d="M 89.4739219176387 118.17145234162733 l -7.566316796331898 13.06193664823703 a36.095142889850756,36.095142889850756 0 0,0 -0.5349508651020479,-0.3160584003736606 l 7.790035532462328 -12.92975967556962" fill="#ff5e08" stroke="none" /><path d="M 89.1626897886671 117.98757091392108 l -13.48011406766503 22.374048817602997 a47.121093693981166,47.121093693981166 0 0,0 -0.6911560466516534,-0.4245644944077057 l 13.863249314248993 -22.138695856366912" fill="#fbff18" stroke="none" /><line stroke="#e1ed5e" stroke-width="0.3" x1="26.63291911575756" x2="22.317208475507996" y1="142.92168965132927" y2="145.44649492493687" /><path d="M 25.769776987707644 143.4266507060508 a86.0,86.0 0 0,1 -11.730757126820373,-40.83630448921669" fill="none" id="id9" stroke="none" /><text fill="#e1ed5e" style="font-size:6.75px; font-family:Arial;" text-anchor="middle"><textPath startOffset="21.46611528233685" xlink:href="#id9">September</textPath></text><line stroke="#e1ed5e" stroke-width="0.3" x1="15.007084014347285" x2="10.007500721073583" y1="101.09737516637583" y2="101.16192664675087" /><path d="M 14.007167355692545 101.11028546245083 a86.0,86.0 0 0,1 10.666146001902534,-42.60595125391555" fill="none" id="id10" stroke="none" /><text fill="#e1ed5e" style="font-size:6.75px; font-family:Arial;" text-anchor="middle"><textPath startOffset="22.20632615414155" xlink:href="#id10">October</textPath></text><line stroke="#e1ed5e" stroke-width="0.3" x1="26.266209847984257" x2="21.92892807433627" y1="57.711370442889674" y2="55.22380399835377" /><path d="M 25.39875349325466 57.213857153982495 a86.0,86.0 0 0,1 29.58750427330802,-30.492523968695096" fill="none" id="id11" stroke="none" /><text fill="#e1ed5e" style="font-size:6.75px; font-family:Arial;" text-anchor="middle"><textPath startOffset="21.46611528233685" xlink:href="#id11">November</textPath></text><line stroke="#e1ed5e" stroke-width="0.3" x1="56.762969772571076" x2="54.21961505331055" y1="26.818313649435495" y2="22.513508569990535" /><path d="M 56.25429882871897 25.957352633546506 a86.0,86.0 0 0,1 42.265352541879196,-11.944610805530505" fill="none" id="id12" stroke="none" /><text fill="#e1ed5e" style="font-size:6.75px; font-family:Arial;" text-anchor="middle"><textPath startOffset="22.20632615414155" xlink:href="#id12">December</textPath></text></svg>