<?xml version="1.0" encoding="utf-8" ?>
<svg baseProfile="full" height="200mm" version="1.1" viewBox="0,0,200,200" width="200mm" xmlns="http://www.w3.org/2000/svg" xmlns:ev="http://www.w3.org/2001/xml-events" xmlns:xlink="http://www.w3.org/1999/xlink"><defs /><rect fill="#1a1a1a" height="200" width="200" x="0" y="0" /><text alignment-baseline="middle" fill="#e1ed5e" style="dominant-baseline: central; font-size:9.0px; font-family:Arial;" text-anchor="middle" x="100.0" y="100.0">2022</text><line stroke="#e1ed5e" stroke-width="0.3" x1="100.0" x2="100.0" y1="15.0" y2="10.0" /><path d="M 100.0 14.0 a86.0,86.0 0 0,1 42.46469731375804,11.215312516191453" fill="none" id="id1" stroke="none" /><text fill="#e1ed5e" style="font-size:6.75px; font-family:Arial;" text-anchor="middle"><textPath startOffset="22.20632615414155" xlink:href="#id1">January</textPath></text><line stroke="#e1ed5e" stroke-width="0.3" x1="143.23703022742887" x2="145.7803849466894" y1="26.81831364943548" y2="22.513508569990506" /><path d="M 143.74570117128098 25.957352633546492 a86.0,86.0 0 0,1 28.547481713284135,27.462654790039103" fill="none" id="id2" stroke="none" /><text fill="#e1ed5e" style="font-size:6.75px; font-family:Arial;" text-anchor="middle"><textPath startOffset="19.985693538727396" xlink:href="#id2">February</textPath></text><line stroke="#e1ed5e" stroke-width="0.3" x1="172.23445277983987" x2="176.4835382374775" y1="55.19839476539836" y2="52.563006222186495" /><path d="M 173.08426987136738 54.67131705675599 a86.0,86.0 0 0,1 12.851231095245387,41.99856678651699" fill="none" id="id3" stroke="none" /><text fill="#e1ed5e" style="font-size:6.75px; font-family:Arial;" text-anchor="middle"><textPath startOffset="22.20632615414155" xlink:href="#id3">March</textPath></text><line stroke="#e1ed5e" stroke-width="0.3" x1="184.98032266829074" x2="189.97916517819016" y1="98.17113171792111" y2="98.06355123074" /><path d="M 185.9800911702706 98.14961562048488 a86.0,86.0 0 0,1 -9.607161424134198,41.387399972396054" fill="none" id="id4" stroke="none" /><text fill="#e1ed5e" style="font-size:6.75px; font-family:Arial;" text-anchor="middle"><textPath startOffset="21.466115282336823" xlink:href="#id4">April</textPath></text><line stroke="#e1ed5e" stroke-width="0.3" x1="174.80103733775053" x2="179.2010983576182" y1="140.37084112569926" y2="142.7455964860345" /><path d="M 175.68104954172406 140.8457921977663 a86.0,86.0 0 0,1 -30.038265399797805,32.042727171017184" fill="none" id="id5" stroke="none" /><text fill="#e1ed5e" style="font-size:6.75px; font-family:Arial;" text-anchor="middle"><textPath startOffset="22.206326154141568" xlink:href="#id5">May</textPath></text><line stroke="#e1ed5e" stroke-width="0.3" x1="143.8653032363475" x2="146.44561519142675" y1="172.8068346515853" y2="177.08958963109032" /><path d="M 144.38136562736335 173.6633856474863 a86.0,86.0 0 0,1 -40.68145358897372,12.25698825130547" fill="none" id="id6" stroke="none" /><text fill="#e1ed5e" style="font-size:6.75px; font-family:Arial;" text-anchor="middle"><textPath startOffset="21.466115282336833" xlink:href="#id6">June</textPath></text><path d="M 106.57524785965236 119.94407469862006 l 1.1391563465600396 3.4552947286768494 a24.638232928762264,24.638232928762264 0 0,0 -0.4039246520023987,0.12932391805107357 l -1.0795103494667004 -3.4743914933876296" fill="#ff1402" stroke="none" /><path d="M 106.2309692047433 120.05430185196036 l 4.177385006444732 13.444865015112404 a35.07888279540187,35.07888279540187 0 0,0 -0.5781752001983853,0.17419944497628556 l -3.9453348318061012 -13.514779829194413" fill="#ffa60f" stroke="none" /><path d="M 105.53697534728816 120.25689768951611 l 2.981536339137903 10.90788251550937 a32.30802634918025,32.30802634918025 0 0,0 -0.5377125706160221,0.14201477709319452 l -2.7933333257103836 -10.957588641906149" fill="#ff810b" stroke="none" /><path d="M 104.83641907484287 120.43548508189849 l 2.003802148531582 8.466732985648832 a29.70062012161971,29.70062012161971 0 0,0 -0.4985176258765653,0.1134609886154612 l -1.8577643732621547 -8.499970707841978" fill="#ff5d08" stroke="none" /><path d="M 104.13013068566511 120.58985236759428 l 3.322606817764937 16.5641208620316 a37.894076358222385,37.894076358222385 0 0,0 -0.6406487772886512,0.1227818629243109 l -3.0369904259045812 -16.618859923304377" fill="#ffcb13" stroke="none" /><path d="M 103.7750983002368 120.6578951692458 l 2.1396717394692817 11.708599611242315 a32.90249973783101,32.90249973783101 0 0,0 -0.5580123391794819,0.09701759780851035 l -1.9378104288177498 -11.743695787571832" fill="#ff890c" stroke="none" /><path d="M 103.41894727170886 120.7198165907248 l 1.831236922364721 11.097829287842664 a32.247899518040256,32.247899518040256 0 0,0 -0.548466341990484,0.08565916283889227 l -1.6399347167657197 -11.127706758028664" fill="#ff800b" stroke="none" /><path d="M 102.34483914955558 120.86867818915974 l 2.33758025668713 20.804075250697995 a41.93499053004702,41.93499053004702 0 0,0 -0.7180216979170309,0.07442588480269728 l -1.9791259621644968 -20.84123050395645" fill="#ffff18" stroke="none" /><path d="M 101.98527174616119 120.90594882070398 l 0.8610180417719905 9.066969874423672 a30.10776014023005,30.10776014023005 0 0,0 -0.51635623307517,0.044553388503442974 l -0.7048174909552788 -9.080447515205778" fill="#ff6209" stroke="none" /><path d="M 101.62511606390274 120.93702456842531 l 0.5697458403167912 7.340265056406921 a28.362343473437434,28.362343473437434 0 0,0 -0.4870722499095333,0.03359135407533923 l -0.4433108296283275 -7.348984754998545" fill="#ff4a06" stroke="none" /><path d="M 101.26447882468166 120.96189622390904 l 0.5128403229041013 8.501609847723744 a29.51706376632873,29.51706376632873 0 0,0 -0.5074291526211823,0.026228291128195372 l -0.36642310186943944 -8.509177945614141" fill="#ff5a08" stroke="none" /><path d="M 100.90346689309514 120.98055641714683 l 0.5587360412321198 12.975121861083275 a33.98714646385929,33.98714646385929 0 0,0 -0.5847078248592937,0.020138519731984522 l -0.3353078646981738 -12.982817179241353" fill="#ff980e" stroke="none" /><line stroke="#e1ed5e" stroke-width="0.3" x1="102.19456741930631" x2="102.32365962044197" y1="184.97166512339345" y2="189.96999836594603" /><path d="M 102.22038585953345 185.97133177190398 a86.0,86.0 0 0,1 -42.740103519485714,-10.115201625700543" fill="none" id="id7" stroke="none" /><text fill="#e1ed5e" style="font-size:6.75px; font-family:Arial;" text-anchor="middle"><textPath startOffset="22.20632615414155" xlink:href="#id7">July</textPath></text><path d="M 100.54218724476979 120.99299961872073 l 0.13679204073292983 5.296464065969868 a26.298230238911664,26.298230238911664 0 0,0 -0.4526304996583928,0.007792444532358015 l -0.04560185118186907 -5.298033987781386" fill="#ff2c04" stroke="none" /><path d="M 99.81925306533755 120.99922214144158 l -0.14694978497344982 17.072661199247744 a38.073293609131284,38.073293609131284 0 0,0 -0.6552963356615198,-0.011281520692383081 l 0.4408058105276375 -17.067602201276202" fill="#ffce13" stroke="none" /><path d="M 99.09653310690486 120.98055641714683 l -0.37024739500806125 8.597986731596029 a29.605954855227374,29.605954855227374 0 0,0 -0.5089572832737467,-0.026307278028003325 l 0.5181927466952969 -8.590339646805823" fill="#ff5b08" stroke="none" /><path d="M 98.01472825383883 120.90594882070398 l -1.027244042642508 10.817416519115573 a31.866081652149454,31.866081652149454 0 0,0 -0.5456192493341678,-0.0565556660959955 l 1.213295888582269 -10.798131484563816" fill="#ff7b0b" stroke="none" /><path d="M 97.65516085044442 120.86867818915974 l -0.7519071264775997 6.691848288856329 a27.733958557038882,27.733958557038882 0 0,0 -0.47395034173097694,-0.05738878597377232 l 0.866984891259966 -6.677913974157208" fill="#ff4106" stroke="none" /><path d="M 97.2962882734958 120.8252237178851 l -3.143509091139643 24.2127440734341 a45.41595021644039,45.41595021644039 0 0,0 -0.7743882512661694,-0.10732315538367042 l 3.559825933592643 -24.15504635255782" fill="#d5ff1c" stroke="none" /><path d="M 96.22490169976321 120.6578951692458 l -2.20849618497016 12.08521713671168 a33.28535423341539,33.28535423341539 0 0,0 -0.562732319681695,-0.10784898838120285 l 2.41619611922355 -12.04541094998201" fill="#ff8e0d" stroke="none" /><path d="M 95.51606077576429 120.51570834832081 l -3.1295080615950623 14.318676381334468 a35.656681548733125,35.656681548733125 0 0,0 -0.5984886564497011,-0.13621406969617136 l 3.3755168674376264 -14.26268557806061" fill="#ffae10" stroke="none" /><path d="M 95.16358092515715 120.4354850818985 l -3.150296617286214 13.31105483827403 a34.67876272491132,34.67876272491132 0 0,0 -0.5797078925595099,-0.1424780957681748 l 3.378957794588935 -13.254855484191825" fill="#ffa10e" stroke="none" /><path d="M 94.81253420990036 120.34920634021253 l -2.7883944353212198 10.938214538309662 a32.28803263695757,32.28803263695757 0 0,0 -0.5373798090205344,-0.1419268917314034 l 2.9762646871532437 -10.888596297274677" fill="#ff810b" stroke="none" /><path d="M 94.11515582081647 120.15858648285463 l -1.9569816330881726 6.703658124969982 a27.983466858854598,27.983466858854598 0 0,0 -0.4612275324653134,-0.13896407202465774 l 2.072084139993732 -6.668978683839598" fill="#ff4406" stroke="none" /><path d="M 93.08242187328487 119.8279376855182 l -3.572166565962491 10.238944147036243 a31.844185134029573,31.844185134029573 0 0,0 -0.5159977766093291,-0.18501844437056045 l 3.7478839032015463 -10.175938161625725" fill="#ff7a0b" stroke="none" /><path d="M 92.7421414339146 119.70592522655815 l -2.3935749098405625 6.498832647123919 a27.925606588909158,27.925606588909158 0 0,0 -0.44964186624014485,-0.1700160794869414 l 2.50508699684099 -6.456668317530345" fill="#ff4306" stroke="none" /><path d="M 92.40401165467489 119.57807347666478 l -1.561937452625268 4.025773187536831 a25.3181591405834,25.3181591405834 0 0,0 -0.4049445737495308,-0.1611358029984934 l 1.631003102416657 -3.9982905401322717" fill="#ff1e03" stroke="none" /><path d="M 92.06813273071674 119.44442032107085 l -1.4878152669485163 3.647275531536641 a24.939062460981162,24.939062460981162 0 0,0 -0.39608995733869873,-0.16556563429142335 l 1.5503766837846773 -3.6211248542252443" fill="#ff1802" stroke="none" /><path d="M 91.07499286063937 119.00905698771935 l -7.262040917804761 15.467164059163947 a38.08714143222802,38.08714143222802 0 0,0 -0.5910531859450586,-0.2837414474965908 l 7.527206771750062 -15.339868335167793" fill="#ffce13" stroke="none" /><path d="M 90.7491055286396 118.85261126421891 l -2.9364762889487026 5.984312774676485 a27.66595022339007,27.66595022339007 0 0,0 -0.42572112880627433,-0.2134654118091271 l 3.0390513254377374 -5.932879521958056" fill="#ff4006" stroke="none" /><path d="M 90.10565033884886 118.52300852407294 l -4.467962863353622 8.364381393158881 a30.482909270816084,30.482909270816084 0 0,0 -0.4606942871635694,-0.2512072576606487 l 4.611279962385832 -8.286233483738467" fill="#ff6809" stroke="none" /><line stroke="#e1ed5e" stroke-width="0.3" x1="58.666819895761336" x2="56.23545636021788" y1="174.27360380694188" y2="178.64263932499728" /><path d="M 58.180547188652646 175.14741091055294 a86.0,86.0 0 0,1 -31.652253787137756,-30.449443065178592" fill="none" id="id8" stroke="none" /><text fill="#e1ed5e" style="font-size:6.75px; font-family:Arial;" text-anchor="middle"><textPath startOffset="22.20632615414155" xlink:href="#id8">August</textPath></text><path d="M 89.4739219176387 118.17145234162733 l -2.9323621304929595 5.062215792597678 a26.850194560454767,26.850194560454767 0 0,0 -0.39793539125488053,-0.23510724333176303 l 3.019065392776222 -5.010989976972166" fill="#ff3404" stroke="none" /><path d="M 89.1626897886671 117.98757091392108 l -5.224282444254715 8.671169239219074 a31.123354337003477,31.123354337003477 0 0,0 -0.45650669065114574,-0.28042369483562263 l 5.37276833483817 -8.579957077555072" fill="#ff710a" stroke="none" /><path d="M 88.8546689885994 117.79835938074946 l -9.130803840071431 14.581292203388404 a38.20423381282813,38.20423381282813 0 0,0 -0.5543583467439515,-0.35381772544937196 l 9.380443988862307 -14.421960049115228" fill="#ffcf13" stroke="none" /><path d="M 87.95078237400918 117.19931262002967 l -20.2722173461933 28.936999435238903 a56.3314694351412,56.3314694351412 0 0,0 -0.7893720017560835,-0.5631959641264225 l 20.76731667579827 -28.583759209268262" fill="#5bff2a" stroke="none" /><path d="M 87.36589467227662 116.77436683061367 l -5.050845141226116 6.706033154372689 a29.395350934189302,29.395350934189302 0 0,0 -0.40155627137481226,-0.3078962256523718 l 5.165530141094415 -6.618097586892951" fill="#ff5808" stroke="none" /><path d="M 87.07902340077011 116.55440617244103 l -5.369105081079191 6.878918602793495 a29.726213985201646,29.726213985201646 0 0,0 -0.40065629230437183,-0.31830559001420194 l 5.4867188661009205 -6.785479098774162" fill="#ff5d08" stroke="none" /><path d="M 86.51685102203217 116.09983520530335 l -5.256193878773318 6.276267909941096 a29.1865201989985,29.1865201989985 0 0,0 -0.3823913964440745,-0.3258822438538246 l 5.363450751794449 -6.1848612758643196" fill="#ff5507" stroke="none" /><path d="M 85.70375840098266 115.38237550388516 l -12.238761927587229 13.168582131805913 a38.97773202832539,38.97773202832539 0 0,0 -0.48752635526468663,-0.46098659876356207 l 12.46362411724273 -12.95596089629642" fill="#ffd914" stroke="none" /><path d="M 84.9287848128048 114.62390073753433 l -6.2643372208144665 6.078411366686961 a29.72863136801817,29.72863136801817 0 0,0 -0.3531951791805026,-0.37032373331503843 l 6.368038951373927 -5.969680516789422" fill="#ff5d08" stroke="none" /><path d="M 84.67929136418377 114.36230785411682 l -6.238729018712012 5.848459683887224 a29.55138704789893,29.55138704789893 0 0,0 -0.3447008764805397,-0.37410472216970203 l 6.338476303188281 -5.740203706916178" fill="#ff5b08" stroke="none" /><path d="M 84.19399662182784 113.82643327865904 l -3.85098906681467 3.3686848038188795 a26.116459136962433,26.116459136962433 0 0,0 -0.29307329614827965,-0.34091045420254756 l 3.9084048725337284 -3.301897250454801" fill="#ff2904" stroke="none" /><path d="M 83.72743513129214 113.27417163493432 l -6.764493803670821 5.518063839219857 a29.72968527231118,29.72968527231118 0 0,0 -0.3200642533483791,-0.39932936818082493 l 6.858475969074061 -5.400806637460772" fill="#ff5d08" stroke="none" /><path d="M 83.50135304334701 112.99209946851258 l -11.237772415705168 8.849347307869623 a35.303792386723295,35.303792386723295 0 0,0 -0.3718551524900881,-0.48067291117243827 l 11.388434385413325 -8.654596402583932" fill="#ffa90f" stroke="none" /><path d="M 83.28015986056508 112.70617746262583 l -1.8405950987973612 1.3987530841876226 a23.311774320352498,23.311774320352498 0 0,0 -0.2400432642915747,-0.3215771798281797 l 1.864399629784021 -1.3668630248501348" fill="#ff0000" stroke="none" /><path d="M 82.6465618267979 111.8261652097733 l -7.788677377261849 5.307892563409296 a30.425349794663656,30.425349794663656 0 0,0 -0.29120956311998414,-0.435318785031997 l 7.878890045792564 -5.173036864171478" fill="#ff6709" stroke="none" /><path d="M 82.24976979558568 111.22182372390057 l -14.899273672610418 9.419428415447047 a38.62708108692625,38.62708108692625 0 0,0 -0.350467848260599,-0.5650657627883411 l 15.059206160538974 -9.161566321293442" fill="#ffd513" stroke="none" /><line stroke="#e1ed5e" stroke-width="0.3" x1="26.63291911575756" x2="22.317208475507996" y1="142.92168965132927" y2="145.44649492493687" /><path d="M 25.769776987707644 143.4266507060508 a86.0,86.0 0 0,1 -11.730757126820373,-40.83630448921669" fill="none" id="id9" stroke="none" /><text fill="#e1ed5e" style="font-size:6.75px; font-family:Arial;" text-anchor="middle"><textPath startOffset="21.46611528233685" xlink:href="#id9">September</textPath></text><path d="M 81.51974371655577 109.97397251340807 l -15.409708721404428 8.316768386194017 a38.510789795669524,38.510789795669524 0 0,0 -0.30982387344081036,-0.5860700083747815 l 15.550585103070125 -8.05028336273311" fill="#ffd313" stroke="none" /><path d="M 81.18737489456691 109.33194174019688 l -6.013052758252369 2.982755341493288 a27.71220030248898,27.71220030248898 0 0,0 -0.20829907475183265,-0.4291577901367425 l 6.06350508961892 -2.878808595391261" fill="#ff4006" stroke="none" /><path d="M 81.02952815118164 109.00673069616217 l -6.71043088695716 3.1859536407786497 a28.428336508924417,28.428336508924417 0 0,0 -0.2060721151274935,-0.4438610029486191 l 6.76427761892448 -3.0699725705512035" fill="#ff4b06" stroke="none" /><path d="M 80.87730276802145 108.67885076344099 l -9.826841716562816 4.459919628460324 a31.791556941178825,31.791556941178825 0 0,0 -0.22187314761918658,-0.5002653750809393 l 9.902155948913283 -4.290105916886689" fill="#ff7a0b" stroke="none" /><path d="M 80.58989483394504 108.01547362559985 l -8.052353489639955 3.325248702572291 a29.711927206770927,29.711927206770927 0 0,0 -0.1911430329052165,-0.47440133214470676 l 8.10839913680256 -3.186148002584779" fill="#ff5d08" stroke="none" /><path d="M 80.32549172779594 107.34259656027581 l -25.165785419776512 9.391960749583184 a47.86123010057334,47.86123010057334 0 0,0 -0.2814143217079662,-0.7743313506984252 l 25.3237240024897 -8.957381601878641" fill="#b8ff1f" stroke="none" /><path d="M 80.0844068197444 106.66101706037122 l -7.969723963917178 2.6655729914553503 a29.403676542669402,29.403676542669402 0 0,0 -0.15641040563942438,-0.48138173047936184 l 8.014426620572852 -2.527992360998185" fill="#ff5808" stroke="none" /><path d="M 79.97269907076064 106.31721596034903 l -12.815560576388108 4.042415106260332 a34.43799511751641,34.43799511751641 0 0,0 -0.17345799485703975,-0.5668707634052235 l 12.883245343751279 -3.8212173703030605" fill="#ff9e0e" stroke="none" /><path d="M 79.76711848015287 105.62410040840567 l -16.81128445510088 4.673004765881275 a38.44867498041801,38.44867498041801 0 0,0 -0.17175924581061353,-0.6391800496690827 l 16.889231777253265 -4.382933783036654" fill="#ffd313" stroke="none" /><path d="M 79.58551787078972 104.9243191809786 l -8.175293303218403 1.9720193423648524 a29.409772938689176,29.409772938689176 0 0,0 -0.11447324743425366,-0.4931477539035327 l 8.208027116583212 -1.8310029311127456" fill="#ff5908" stroke="none" /><path d="M 79.35854240842038 103.8639653848113 l -17.160608313056418 3.2123698730948305 a38.458688320595805,38.458688320595805 0 0,0 -0.11620669509095694,-0.6517488592712191 l 17.213361450486566 -2.916502263090398" fill="#ffd313" stroke="none" /><path d="M 79.29508885075956 103.50808413554451 l -7.913329715227934 1.340774960743672 a29.026111429407557,29.026111429407557 0 0,0 -0.07922503737368229,-0.4933343833521314 l 7.935236506962907 -1.204361347698327" fill="#ff5307" stroke="none" /><path d="M 79.1416061653843 102.43462659150553 l -35.51461008489722 4.145324648926133 a56.75571626925236,56.75571626925236 0 0,0 -0.10491077534436584,-0.9713434848206196 l 35.58070316174264 -3.533384842220731" fill="#57ff2a" stroke="none" /><path d="M 79.04373962182676 101.35467743843564 l -20.076527420646514 1.2978087811512067 a41.118430875801536,41.118430875801536 0 0,0 -0.039578739703749415,-0.7067049849039523 l 20.095892511237796 -0.9520320799118167" fill="#fff417" stroke="none" /><path d="M 79.0095281055655 100.63252640178507 l -8.393934598557484 0.25294263393156824 a29.397744817563858,29.397744817563858 0 0,0 -0.010888276971102792,-0.5059354461843114 l 8.397044938213595 -0.10841737195712799" fill="#ff5808" stroke="none" /><line stroke="#e1ed5e" stroke-width="0.3" x1="15.007084014347285" x2="10.007500721073583" y1="101.09737516637583" y2="101.16192664675087" /><path d="M 14.007167355692545 101.11028546245083 a86.0,86.0 0 0,1 10.666146001902534,-42.60595125391555" fill="none" id="id10" stroke="none" /><text fill="#e1ed5e" style="font-size:6.75px; font-family:Arial;" text-anchor="middle"><textPath startOffset="22.20632615414155" xlink:href="#id10">October</textPath></text><path d="M 79.00175016825051 100.2711162175752 l -16.781603026232073 0.21667352154470354 a37.78300174417497,37.78300174417497 0 0,0 -0.002799005629720256,-0.6503903340730119 l 16.782846329151294 0.07222629073198382" fill="#ffca12" stroke="none" /><path d="M 79.00019446554 99.90962569577889 l -11.63937655636345 -0.05009096661027794 a32.63948434105906,32.63948434105906 0 0,0 0.007253725766721779,-0.5618090545188494 l 11.636789823479013 0.2504362791895993" fill="#ff850c" stroke="none" /><path d="M 79.01574976396665 99.18683210126434 l -8.724146154747736 -0.3380723884400248 a29.73069407717538,29.73069407717538 0 0,0 0.024218328589245653,-0.5112106392217673 l 8.71703421792499 0.4881941342848013" fill="#ff5d08" stroke="none" /><path d="M 79.03285615573316 98.82574320788736 l -13.41708120989069 -0.7514184506035655 a34.43810618653943,34.43810618653943 0 0,0 0.03824172777130294,-0.5915826024326847 l 13.402158891114974 0.9822601172892619" fill="#ff9e0e" stroke="none" /><path d="M 79.05617556472873 98.46500227214037 l -8.70397578109171 -0.6379247060923905 a29.727321601068343,29.727321601068343 0 0,0 0.04179592928263606,-0.510016202454929 l 8.691705367989577 0.7876548257550978" fill="#ff5d08" stroke="none" /><path d="M 79.08570108090925 98.10471618934814 l -20.069859039793126 -1.818759455783774 a41.15209983686982,41.15209983686982 0 0,0 0.0700033947802323,-0.704924632105538 l 20.035578519330667 2.163959618593742" fill="#fff517" stroke="none" /><path d="M 79.12142395522702 97.74499172005258 l -20.712840185412855 -2.237107838157723 a41.833300267264434,41.833300267264434 0 0,0 0.08348661175694867,-0.71526230511893 l 20.671263220652317 2.5933138816015147" fill="#fffd17" stroke="none" /><path d="M 79.26566170972629 96.67025291283419 l -17.23974830190414 -2.7685475604815766 a38.46063507171647,38.46063507171647 0 0,0 0.110598388415761,-0.6527579490456402 l 17.189538051968153 3.0648912978430447" fill="#ffd313" stroke="none" /><path d="M 79.32604984820605 96.31383870115002 l -19.812541970763462 -3.5325723873882913 a41.12500650969837,41.12500650969837 0 0,0 0.13025714462832455,-0.6958388751138209 l 19.748799102225277 3.873089339964685" fill="#fff417" stroke="none" /><path d="M 79.3925641242962 95.95851677861259 l -6.597204849828142 -1.2938287358725307 a27.722879191861583,27.722879191861583 0 0,0 0.0958692860084064,-0.46749268586091647 l 6.57395626790474 1.4071970778968494" fill="#ff4106" stroke="none" /><path d="M 79.46518482838121 95.60439243477599 l -13.143973644217718 -2.813551011040038 a34.441730262567184,34.441730262567184 0 0,0 0.12908369014408683,-0.5786568721478818 l 13.093595567071594 3.0393860527378793" fill="#ff9e0e" stroke="none" /><path d="M 79.54389044137918 95.25157060432595 l -6.540034433337654 -1.5181230655314661 a27.713921956006104,27.713921956006104 0 0,0 0.11186816942861716,-0.463765783999021 l 6.512933463648222 1.630474081189884" fill="#ff4006" stroke="none" /><path d="M 79.62865764111835 94.90015583598534 l -16.99041107832344 -4.253448165344885 a38.5147335094112,38.5147335094112 0 0,0 0.16653709903295844,-0.6417353773321872 l 16.914677647420174 4.545279968225936" fill="#ffd313" stroke="none" /><path d="M 79.81627453868168 94.20196356495316 l -9.68636496533218 -2.7825337349039128 a31.07810300738651,31.07810300738651 0 0,0 0.15212598657686946,-0.5128932008582936 l 9.637033081643605 2.9488563225087456" fill="#ff700a" stroke="none" /><path d="M 79.91906864156998 93.8553929516997 l -12.046682601713558 -3.6861901224542124 a33.59803791569573,33.59803791569573 0 0,0 0.17398106568951793,-0.5515675228492913 l 11.981446052255837 3.8930078117299183" fill="#ff920d" stroke="none" /><path d="M 80.2630227832202 92.82701384747504 l -20.099017801945884 -7.304562131740281 a42.38520854561376,42.38520854561376 0 0,0 0.25510932740796105,-0.6835661650755056 l 19.970303886036298 7.649451433845128" fill="#faff18" stroke="none" /><path d="M 80.95270993114464 91.15688171328213 l -10.602280726396826 -4.922339200672998 a32.68921638981021,32.68921638981021 0 0,0 0.24134262623685684,-0.5083291208981117 l 10.515979906318218 5.104110737211642" fill="#ff860c" stroke="none" /><path d="M 81.10775173730289 90.83032412892265 l -18.152703823185742 -8.810725326479282 a41.177946795225864,41.177946795225864 0 0,0 0.3149916590376257,-0.6350039635682768 l 17.9983521511947 9.121888878546521" fill="#fff517" stroke="none" /><line stroke="#e1ed5e" stroke-width="0.3" x1="26.266209847984243" x2="21.928928074336255" y1="57.711370442889674" y2="55.22380399835377" /><path d="M 25.398753493254645 57.213857153982495 a86.0,86.0 0 0,1 29.58750427330803,-30.492523968695096" fill="none" id="id11" stroke="none" /><text fill="#e1ed5e" style="font-size:6.75px; font-family:Arial;" text-anchor="middle"><textPath startOffset="21.46611528233685" xlink:href="#id11">November</textPath></text><path d="M 81.78341655067845 89.55222093294921 l -15.727153410431033 -9.02001325566444 a39.13019562849763,39.13019562849763 0 0,0 0.3401351737174202,-0.5814012683195716 l 15.569558562243287 9.289393936337902" fill="#ffdb14" stroke="none" /><path d="M 81.96595687620814 89.24020034530311 l -14.715525847289973 -8.779845364873559 a38.135704992598086,38.135704992598086 0 0,0 0.34119507092031537,-0.5608349853896264 l 14.562214978083441 9.03184812347026" fill="#ffce13" stroke="none" /><path d="M 82.15384107792192 88.93136811851018 l -12.956555375700871 -8.035978079762138 a36.24628711857483,36.24628711857483 0 0,0 0.33341820999305233,-0.527387537652689 l 12.816309569461856 8.257813265129041" fill="#ffb610" stroke="none" /><path d="M 82.7489923806493 88.02491185347247 l -29.086107524806266 -20.190629390148175 a56.40710615278954,56.40710615278954 0 0,0 0.5605452955938185,-0.7928515680607298 l 28.734249609408568 20.68830745854069" fill="#5aff2a" stroke="none" /><path d="M 83.39014120810768 87.1503855733568 l -15.147515190306118 -11.718325372649344 a40.15114529159632,40.15114529159632 0 0,0 0.42760189542591,-0.5430109835385539 l 14.943559214286237 11.977328750140947" fill="#ffe815" stroke="none" /><path d="M 83.6137871275137 86.86637796730984 l -7.894636732958393 -6.327586230138799 a31.117491618243037,31.117491618243037 0 0,0 0.33859017893184523,-0.41507152401703284 l 7.784548061950155 6.462541923763913" fill="#ff700a" stroke="none" /><path d="M 84.31358615837235 86.03803664274999 l -25.17809196095977 -22.410195275577113 a54.70687121469517,54.70687121469517 0 0,0 0.6321414382021341,-0.6980263647229014 l 24.78860688214159 22.84027442756957" fill="#6cff28" stroke="none" /><path d="M 84.80347519578584 85.50635884689758 l -8.057696608200041 -7.685004608911377 a32.134889782516375,32.134889782516375 0 0,0 0.3852142923914713,-0.39699718960167846 l 7.924218052105452 7.822565994063178" fill="#ff7e0b" stroke="none" /><path d="M 85.05521093208273 85.24692304244772 l -12.276281556069444 -12.118801123669014 a38.25028780974196,38.25028780974196 0 0,0 0.46658830334059637,-0.46458462488477736 l 12.065857452561534 12.328321599203901" fill="#ffd013" stroke="none" /><path d="M 85.57189188830299 84.74124197986013 l -11.535720596691283 -12.199850999879457 a37.79015229544352,37.79015229544352 0 0,0 0.4765016380011983,-0.4428563414975849 l 11.324011074895228 12.396611927451689" fill="#ffca12" stroke="none" /><path d="M 86.10567301691215 84.25364557470407 l -23.409119265549233 -26.529409390467855 a56.38073525798683,56.38073525798683 0 0,0 0.7332346874195574,-0.6358538955156456 l 22.9489907794829 26.92842827940318" fill="#5aff2a" stroke="none" /><path d="M 86.65592168130627 83.78471172551755 l -10.812702975722814 -13.139243609809915 a38.01629419935891,38.01629419935891 0 0,0 0.5088690999338993,-0.41147008933938756 l 10.584930477224415 13.323419796413436" fill="#ffcd13" stroke="none" /><path d="M 86.93701828274178 83.55741782278169 l -14.607989444559003 -18.38730789684615 a44.483748578661114,44.483748578661114 0 0,0 0.6036390556853137,-0.47114985772642975 l 14.289317833714263 18.6360361437958" fill="#e0ff1b" stroke="none" /><path d="M 87.51073957382395 83.11751280151077 l -10.049334035824588 -13.584291417093661 a37.89739884917519,37.89739884917519 0 0,0 0.5277748472119089,-0.3834508717109845 l 9.814013872258897 13.755261523621314" fill="#ffcb13" stroke="none" /><path d="M 88.09926311788651 82.69761687909137 l -10.873228525378417 -15.80849720239161 a40.18686223339101,40.18686223339101 0 0,0 0.5733235843645275,-0.38711064342426904 l 10.59950024660735 15.993319758114545" fill="#ffe915" stroke="none" /><line stroke="#e1ed5e" stroke-width="0.3" x1="56.762969772571076" x2="54.21961505331055" y1="26.818313649435495" y2="22.513508569990535" /><path d="M 56.25429882871897 25.957352633546506 a86.0,86.0 0 0,1 42.265352541879196,-11.944610805530505" fill="none" id="id12" stroke="none" /><text fill="#e1ed5e" style="font-size:6.75px; font-family:Arial;" text-anchor="middle"><textPath startOffset="22.20632615414155" xlink:href="#id12">December</textPath></text><path d="M 89.94658935756843 81.56283822128135 l -30.16023192729471 -55.31148533615593 a84.0,84.0 0 0,0 1.2754198138867787,-0.6812850939930022 l 29.20366706687963 55.822449156650684" fill="#4dd2ff" stroke="none" /><path d="M 90.91171255644093 81.06846463323043 l -7.887641027321182 -16.430505306579114 a39.225706724442944,39.225706724442944 0 0,0 0.611214567495676,-0.2869734349317982 l 7.603648248525897 16.563843724150917" fill="#ffdc14" stroke="none" /><path d="M 92.91201910852362 80.23233633223022 l -5.662771481062726 -15.792898397863793 a37.77744380565723,37.77744380565723 0 0,0 0.6140057814932753,-0.21421456084345 l 5.390083695506165 15.888033811879453" fill="#ffca12" stroke="none" /><path d="M 93.25333710446033 80.11325718540243 l -4.370923374116828 -12.883914662586886 a34.605154470832815,34.605154470832815 0 0,0 0.5657401889900854,-0.18651564552321373 l 4.148500362884333 12.957244032369333" fill="#ffa00e" stroke="none" /><path d="M 93.94186890950719 79.89281104454417 l -6.15230337873363 -20.41975069532927 a42.32644028719696,42.32644028719696 0 0,0 0.6994137537429918,-0.20417805390552196 l 5.799899407267217 20.52262707815349" fill="#fbff18" stroke="none" /><path d="M 94.98787191387505 79.60689891045804 l -7.279066343026063 -29.61670835622624 a51.49810191936436,51.49810191936436 0 0,0 0.8626577343629355,-0.2041632143701496 l 6.768184921700594 29.73761748273726" fill="#8fff24" stroke="none" /><path d="M 95.692805502759 79.44645832069477 l -3.8679312099974745 -18.457417093259313 a39.85834397819208,39.85834397819208 0 0,0 0.6727207604230744,-0.13494145591253287 l 3.549644040107264 18.521262505249055" fill="#ffe515" stroke="none" /><path d="M 96.40284397218896 79.31037775812273 l -0.7500233941133497 -4.31388034791996 a25.378595522297914,25.378595522297914 0 0,0 0.43103827676276757,-0.07112500894432768 l 0.6756559112116965 4.326151619803914" fill="#ff1f03" stroke="none" /><path d="M 96.75951476605007 79.25152402106235 l -2.7210140291244795 -17.422358117899734 a38.63356117564002,38.63356117564002 0 0,0 0.6579314225198243,-0.09696198906956524 l 2.4207136261760063 17.466614591130266" fill="#ffd513" stroke="none" /><path d="M 97.47563105711357 79.15227682838746 l -4.076563629617552 -33.66665965417655 a54.91256910492745,54.91256910492745 0 0,0 0.9393534865863573,-0.1055473092571556 l 3.4964434395214763 33.731842916904306" fill="#6aff28" stroke="none" /><path d="M 98.19473922651362 79.07773832637324 l -1.5360689309068305 -17.802434192980748 a38.86858055235243,38.86858055235243 0 0,0 0.6670770360299142,-0.05177801666946174 l 1.229401705514582 17.82623747183867" fill="#ffd814" stroke="none" /><path d="M 99.27714615592234 79.0124445844662 l -0.3003395821945961 -8.720149552265688 a29.72532017054459,29.72532017054459 0 0,0 0.5115209033304396,-0.01321107579936201 l 0.1501920436692775 8.72402742020741" fill="#ff5d08" stroke="none" /></svg>