<?xml version="1.0" encoding="utf-8" ?>
<svg baseProfile="full" height="200mm" version="1.1" viewBox="0,0,200,200" width="200mm" xmlns="http://www.w3.org/2000/svg" xmlns:ev="http://www.w3.org/2001/xml-events" xmlns:xlink="http://www.w3.org/1999/xlink"><defs /><rect fill="#1a1a1a" height="200" width="200" x="0" y="0" /><text alignment-baseline="middle" fill="#e1ed5e" style="dominant-baseline: central; font-size:9.0px; font-family:Arial;" text-anchor="middle" x="100.0" y="100.0">2022</text><line stroke="#e1ed5e" stroke-width="0.3" x1="100.0" x2="100.0" y1="15.0" y2="10.0" /><path d="M 100.0 14.0 a86.0,86.0 0 0,1 42.46469731375804,11.215312516191453" fill="none" id="id1" stroke="none" /><text fill="#e1ed5e" style="font-size:6.75px; font-family:Arial;" text-anchor="middle"><textPath startOffset="22.20632615414155" xlink:href="#id1">January</textPath></text><line stroke="#e1ed5e" stroke-width="0.3" x1="143.23703022742887" x2="145.7803849466894" y1="26.81831364943548" y2="22.513508569990506" /><path d="M 143.74570117128098 25.957352633546492 a86.0,86.0 0 0,1 28.547481713284135,27.462654790039103" fill="none" id="id2" stroke="none" /><text fill="#e1ed5e" style="font-size:6.75px; font-family:Arial;" text-anchor="middle"><textPath startOffset="19.985693538727396" xlink:href="#id2">February</textPath></text><line stroke="#e1ed5e" stroke-width="0.3" x1="172.23445277983987" x2="176.4835382374775" y1="55.19839476539836" y2="52.563006222186495" /><path d="M 173.08426987136738 54.67131705675599 a86.0,86.0 0 0,1 12.851231095245387,41.99856678651699" fill="none" id="id3" stroke="none" /><text fill="#e1ed5e" style="font-size:6.75px; font-family:Arial;" text-anchor="middle"><textPath startOffset="22.20632615414155" xlink:href="#id3">March</textPath></text><line stroke="#e1ed5e" stroke-width="0.3" x1="184.98032266829074" x2="189.97916517819016" y1="98.17113171792111" y2="98.06355123074" /><path d="M 185.9800911702706 98.14961562048488 a86.0,86.0 0 0,1 -9.607161424134198,41.387399972396054" fill="none" id="id4" stroke="none" /><text fill="#e1ed5e" style="font-size:6.75px; font-family:Arial;" text-anchor="middle"><textPath startOffset="21.466115282336823" xlink:href="#id4">April</textPath></text><line stroke="#e1ed5e" stroke-width="0.3" x1="174.80103733775053" x2="179.2010983576182" y1="140.37084112569926" y2="142.7455964860345" /><path d="M 175.68104954172406 140.8457921977663 a86.0,86.0 0 0,1 -30.038265399797805,32.042727171017184" fill="none" id="id5" stroke="none" /><text fill="#e1ed5e" style="font-size:6.75px; font-family:Arial;" text-anchor="middle"><textPath startOffset="22.206326154141568" xlink:href="#id5">May</textPath></text><line stroke="#e1ed5e" stroke-width="0.3" x1="143.8653032363475" x2="146.44561519142675" y1="172.8068346515853" y2="177.08958963109032" /><path d="M 144.38136562736335 173.6633856474863 a86.0,86.0 0 0,1 -40.68145358897372,12.25698825130547" fill="none" id="id6" stroke="none" /><text fill="#e1ed5e" style="font-size:6.75px; font-family:Arial;" text-anchor="middle"><textPath startOffset="21.466115282336833" xlink:href="#id6">June</textPath></text><path d="M 106.57524785965236 119.94407469862006 l 2.031244411303825 6.1611807090630135 a27.487380179100285,27.487380179100285 0 0,0 -0.4506342035730758,0.14427884142498235 l -1.9248888626398089 -6.195232397147702" fill="#ff0000" stroke="none" /><path d="M 106.2309692047433 120.05430185196036 l 7.448749220270476 23.973712655993197 a46.10423795813385,46.10423795813385 0 0,0 -0.7598966924605747,0.22895063991075165 l -7.0349775533696555 -24.098378665009676" fill="#efff19" stroke="none" /><path d="M 105.53697534728816 120.25689768951611 l 5.316415998788395 19.449986356740496 a41.16348800058077,41.16348800058077 0 0,0 -0.6850967839722487,0.18094028739484394 l -4.980828772004649 -19.538617993438926" fill="#ffcd13" stroke="none" /><path d="M 104.83641907484287 120.43548508189849 l 3.5730055210194562 15.097141064994734 a36.51418824139974,36.51418824139974 0 0,0 -0.6128816960175948,0.139489878642114 l -3.312603675608999 -15.156407677214531" fill="#ff8a0c" stroke="none" /><path d="M 104.13013068566511 120.58985236759428 l 5.924583179407591 29.53569808987539 a51.12404600159129,51.12404600159129 0 0,0 -0.8643186668900417,0.1656487296052413 l -5.415296897945845 -29.633304017829097" fill="#afff20" stroke="none" /><path d="M 103.7750983002368 120.6578951692458 l 3.8152763454692713 20.877755363738046 a42.22350118666546,42.22350118666546 0 0,0 -0.7160925416991439,0.12450186729991941 l -3.4553348322980777 -20.94033580955897" fill="#ffdb14" stroke="none" /><path d="M 103.41894727170886 120.7198165907248 l 3.2653022349031073 19.78868290257664 a41.05627507051078,41.05627507051078 0 0,0 -0.6982775728100071,0.10905659606932933 l -2.9241887984845834 -19.841957805993072" fill="#ffcb12" stroke="none" /><path d="M 102.34483914955558 120.86867818915974 l 4.168169581557644 37.09601558463274 a58.32945231202753,58.32945231202753 0 0,0 -0.9987318909168126,0.10352264406185661 l -3.529005094035228 -37.16226759715035" fill="#5aff2a" stroke="none" /><path d="M 101.98527174616119 120.90594882070398 l 1.535292403595401 16.167431222675052 a37.24016487306905,37.24016487306905 0 0,0 -0.6386789041560789,0.05510790327126068 l -1.2567691816977804 -16.191463378224974" fill="#ff950d" stroke="none" /><path d="M 101.62511606390274 120.93702456842531 l 1.015921174913182 13.088521534677227 a34.1278898455672,34.1278898455672 0 0,0 -0.5860851416355302,0.04041986279167226 l -0.7904732724987216 -13.104069741985185" fill="#ff6709" stroke="none" /><path d="M 101.26447882468166 120.96189622390904 l 0.9144522110032433 15.15933044873245 a36.18688653082242,36.18688653082242 0 0,0 -0.6220903716473543,0.03215496644473428 l -0.6533737709424094 -15.172825221939386" fill="#ff860c" stroke="none" /><path d="M 100.90346689309514 120.98055641714683 l 0.9962894598041466 23.13610756407475 a44.15754878876764,44.15754878876764 0 0,0 -0.759677318919779,0.026164822885154 l -0.5978917892097154 -23.149829185385997" fill="#fff617" stroke="none" /><line stroke="#e1ed5e" stroke-width="0.3" x1="102.19456741930631" x2="102.32365962044197" y1="184.97166512339345" y2="189.96999836594603" /><path d="M 102.22038585953345 185.97133177190398 a86.0,86.0 0 0,1 -42.740103519485714,-10.115201625700543" fill="none" id="id7" stroke="none" /><text fill="#e1ed5e" style="font-size:6.75px; font-family:Arial;" text-anchor="middle"><textPath startOffset="22.20632615414155" xlink:href="#id7">July</textPath></text><path d="M 100.54218724476979 120.99299961872073 l 0.24391565660733858 9.444193561454917 a30.447342847264764,30.447342847264764 0 0,0 -0.5240427162218874,0.009021870602681933 l -0.08131325049278325 -9.446992909336759" fill="#ff2f04" stroke="none" /><path d="M 99.81925306533755 120.99922214144158 l -0.26202806170635395 30.44248294079788 a51.443610599038536,51.443610599038536 0 0,0 -0.8854187889503486,-0.015243287418789534 l 0.7860065405493706 -30.43346217609993" fill="#abff21" stroke="none" /><path d="M 99.09653310690486 120.98055641714683 l -0.660192917487544 15.331181316557235 a36.34538938083535,36.34538938083535 0 0,0 -0.624815201173297,-0.03229580900711442 l 0.92399618707433 -15.317545700787917" fill="#ff880c" stroke="none" /><path d="M 98.01472825383883 120.90594882070398 l -1.8316921351170903 19.28867526880877 a40.37545069678135,40.37545069678135 0 0,0 -0.6913188556152646,-0.07165802601677791 l 2.163443587337948 -19.25428787433623" fill="#ffc212" stroke="none" /><path d="M 97.65516085044442 120.86867818915974 l -1.340735319685677 11.932321212166526 a33.00740857586565,33.00740857586565 0 0,0 -0.5640692273341227,-0.06830092799098268 l 1.545931970071189 -11.907474755450195" fill="#ff5608" stroke="none" /><path d="M 97.2962882734958 120.8252237178851 l -5.605231707255938 43.17405703792099 a64.53639653905319,64.53639653905319 0 0,0 -1.1004113537363855,-0.15250698665676493 l 6.3475716521791545 -43.07117548577162" fill="#32ff4e" stroke="none" /><path d="M 96.22490169976321 120.6578951692458 l -3.9379981041698233 21.549306943219506 a42.90617398820555,42.90617398820555 0 0,0 -0.7253848238397383,-0.13902172791931364 l 4.308350542581256 -21.478328016951725" fill="#ffe515" stroke="none" /><path d="M 95.51606077576429 120.51570834832081 l -5.5802662904360165 25.531817001838384 a47.134518386370544,47.134518386370544 0 0,0 -0.7911413332984408,-0.18006119172367746 l 6.01892777312732 -25.43197907653702" fill="#e1ff1b" stroke="none" /><path d="M 95.16358092515715 120.4354850818985 l -5.617334632893348 23.735113999452945 a45.3907786867277,45.3907786867277 0 0,0 -0.7587754171868403,-0.18648853663034354 l 6.0250633348233995 -23.634904204508572" fill="#f8ff18" stroke="none" /><path d="M 94.81253420990036 120.34920634021253 l -4.97202217268988 19.504071778801034 a41.12783695378971,41.12783695378971 0 0,0 -0.6845034324685861,-0.18078357786983912 l 5.307016047969956 -19.415596851627612" fill="#ffcc13" stroke="none" /><path d="M 94.11515582081647 120.15858648285463 l -3.4895192545240974 11.953379483646744 a33.45231005507658,33.45231005507658 0 0,0 -0.5513657939450572,-0.16612199079307077 l 3.6947600229094006 -11.891542123747946" fill="#ff5d08" stroke="none" /><path d="M 93.08242187328487 119.8279376855182 l -6.369576393327199 18.257193702272215 a40.336406732190945,40.336406732190945 0 0,0 -0.6536042954975232,-0.2343592462384294 l 6.682900249454448 -18.144846914993828" fill="#ffc112" stroke="none" /><path d="M 92.7421414339146 119.70592522655815 l -4.268014371629057 11.588152525623098 a33.349138659580156,33.349138659580156 0 0,0 -0.5369684234665977,-0.20303551119351673 l 4.466853015855937 -11.512968764322949" fill="#ff5b08" stroke="none" /><path d="M 92.40401165467489 119.57807347666478 l -2.78511086825955 7.178408225573613 a28.699765399119663,28.699765399119663 0 0,0 -0.45903077714797264,-0.18265781954275845 l 2.908262721449381 -7.129403561624788" fill="#ff1302" stroke="none" /><path d="M 92.06813273071674 119.44442032107085 l -2.6529426405494734 6.503504161031791 a28.02379320784741,28.02379320784741 0 0,0 -0.445082611807537,-0.18604456783281975 l 2.7644967118544725 -6.456874550178998" fill="#ff0901" stroke="none" /><path d="M 91.07499286063937 119.00905698771935 l -12.94903906166595 27.579700230586646 a51.4683028314603,51.4683028314603 0 0,0 -0.7987079948714374,-0.38342837494321086 l 13.42185972453763 -27.352717579143874" fill="#aaff21" stroke="none" /><path d="M 90.7491055286396 118.85261126421891 l -5.236068840651345 10.670705488111883 a32.88614203676117,32.88614203676117 0 0,0 -0.5060489662175751,-0.2537434570657035 l 5.418971714551681 -10.578994190136878" fill="#ff5407" stroke="none" /><path d="M 90.10565033884886 118.52300852407294 l -7.966882354214015 14.914636616978386 a37.90909813864711,37.90909813864711 0 0,0 -0.5729277605637891,-0.31240589601187346 l 8.222432926646444 -14.775290069206747" fill="#ff9f0e" stroke="none" /><line stroke="#e1ed5e" stroke-width="0.3" x1="58.666819895761336" x2="56.23545636021788" y1="174.27360380694188" y2="178.64263932499728" /><path d="M 58.180547188652646 175.14741091055294 a86.0,86.0 0 0,1 -31.652253787137756,-30.449443065178592" fill="none" id="id8" stroke="none" /><text fill="#e1ed5e" style="font-size:6.75px; font-family:Arial;" text-anchor="middle"><textPath startOffset="22.20632615414155" xlink:href="#id8">August</textPath></text><path d="M 89.4739219176387 118.17145234162733 l -5.2287328315111745 9.026502436279976 a31.431557566130344,31.431557566130344 0 0,0 -0.46583383705717674,-0.27522284191863083 l 5.383334539596733 -8.935161022067597" fill="#ff3e05" stroke="none" /><path d="M 89.1626897886671 117.98757091392108 l -9.315485578437043 15.461673992179328 a39.051084017379765,39.051084017379765 0 0,0 -0.5727879115497118,-0.35185311804486874 l 9.580252689919064 -15.29903240730608" fill="#ffaf10" stroke="none" /><path d="M 88.8546689885994 117.79835938074946 l -16.281254392220593 26.000090669871636 a51.67709176936022,51.67709176936022 0 0,0 -0.749854775210248,-0.4785927956899385 l 16.726390969477762 -25.715983445357892" fill="#a8ff21" stroke="none" /><path d="M 87.95078237400918 117.19931262002967 l -36.14765287797246 51.59793786008904 a84.0,84.0 0 0,0 -1.1770906886044523,-0.8398229526231229 l 37.030470894425804 -50.968070645621694" fill="#4dd2ff" stroke="none" /><path d="M 87.36589467227662 116.77436683061367 l -9.00622728079222 11.957614429284801 a35.969858806038424,35.969858806038424 0 0,0 -0.49136757769514267,-0.37675970558823324 l 9.210723586980851 -11.800815381869201" fill="#ff820c" stroke="none" /><path d="M 87.07902340077011 116.55440617244103 l -9.573720694774075 12.265888707842763 a36.5598249904917,36.5598249904917 0 0,0 -0.49276116814873144,-0.39147927382234665 l 9.783439355640164 -12.099275520015285" fill="#ff8b0c" stroke="none" /><path d="M 86.51685102203217 116.09983520530335 l -9.372387269954928 11.191294464900274 a35.59749002185378,35.59749002185378 0 0,0 -0.4663856405817011,-0.3974639609241221 l 9.563638387113684 -11.028306113753201" fill="#ff7d0b" stroke="none" /><path d="M 85.70375840098266 115.38237550388516 l -21.823094645225982 23.48106907431989 a53.056326439058374,53.056326439058374 0 0,0 -0.6636188435430336,-0.6274930375696767 l 22.224049323159832 -23.101941400004286" fill="#97ff23" stroke="none" /><path d="M 84.9287848128048 114.62390073753433 l -11.17002069884995 10.838493904258648 a36.56413545704959,36.56413545704959 0 0,0 -0.4344053452869638,-0.45547226780369743 l 11.354932595515871 -10.64461451987245" fill="#ff8b0c" stroke="none" /><path d="M 84.67929136418377 114.36230785411682 l -11.124358382556641 10.428464085290106 a36.24808881800417,36.24808881800417 0 0,0 -0.42281426472666533,-0.4588813775293256 l 11.302219055279036 -10.235431452959437" fill="#ff870c" stroke="none" /><path d="M 84.19399662182784 113.82643327865904 l -6.866748399884509 6.006745432147388 a30.123224445005174,30.123224445005174 0 0,0 -0.33803635601648047,-0.3932126508320533 l 6.969127265471768 -5.887655682153804" fill="#ff2a04" stroke="none" /><path d="M 83.72743513129214 113.27417163493432 l -12.061856368968158 9.839330982511727 a36.566014687421855,36.566014687421855 0 0,0 -0.3936629023030931,-0.491154999061441 l 12.229437183326112 -9.630248149872028" fill="#ff8b0c" stroke="none" /><path d="M 83.50135304334701 112.99209946851258 l -20.03821730338955 15.779385610304665 a46.50527715859113,46.50527715859113 0 0,0 -0.48984048908879213,-0.6331848633096908 l 20.30686460969641 -15.432122752881721" fill="#e9ff1a" stroke="none" /><line stroke="#e1ed5e" stroke-width="0.3" x1="26.63291911575756" x2="22.317208475507996" y1="142.92168965132927" y2="145.44649492493687" /><path d="M 25.769776987707644 143.4266507060508 a86.0,86.0 0 0,1 -11.730757126820373,-40.83630448921669" fill="none" id="id9" stroke="none" /><text fill="#e1ed5e" style="font-size:6.75px; font-family:Arial;" text-anchor="middle"><textPath startOffset="21.46611528233685" xlink:href="#id9">September</textPath></text><line stroke="#e1ed5e" stroke-width="0.3" x1="15.007084014347285" x2="10.007500721073583" y1="101.09737516637583" y2="101.16192664675087" /><path d="M 14.007167355692545 101.11028546245083 a86.0,86.0 0 0,1 10.666146001902534,-42.60595125391555" fill="none" id="id10" stroke="none" /><text fill="#e1ed5e" style="font-size:6.75px; font-family:Arial;" text-anchor="middle"><textPath startOffset="22.20632615414155" xlink:href="#id10">October</textPath></text><line stroke="#e1ed5e" stroke-width="0.3" x1="26.266209847984243" x2="21.928928074336255" y1="57.711370442889674" y2="55.22380399835377" /><path d="M 25.398753493254645 57.213857153982495 a86.0,86.0 0 0,1 29.58750427330803,-30.492523968695096" fill="none" id="id11" stroke="none" /><text fill="#e1ed5e" style="font-size:6.75px; font-family:Arial;" text-anchor="middle"><textPath startOffset="21.46611528233685" xlink:href="#id11">November</textPath></text><line stroke="#e1ed5e" stroke-width="0.3" x1="56.762969772571076" x2="54.21961505331055" y1="26.818313649435495" y2="22.513508569990535" /><path d="M 56.25429882871897 25.957352633546506 a86.0,86.0 0 0,1 42.265352541879196,-11.944610805530505" fill="none" id="id12" stroke="none" /><text fill="#e1ed5e" style="font-size:6.75px; font-family:Arial;" text-anchor="middle"><textPath startOffset="22.20632615414155" xlink:href="#id12">December</textPath></text></svg>